<?xml version="1.0" standalone="no"?> 
<!DOCTYPE svg PUBLIC "-//W3C//DTD SVG 1.1//EN" "http://www.w3.org/Graphics/SVG/1.1/DTD/svg11.dtd" >
<svg xmlns="http://www.w3.org/2000/svg">
<defs>
  <font id="framework-icons" horiz-adv-x="1190.6">
    <font-face font-family="framework-icons"
      units-per-em="1001" ascent="991"
      descent="10" />
    <missing-glyph horiz-adv-x="0" />
    <glyph glyph-name="0-24"
      unicode="&#xE001;"
      horiz-adv-x="1001" d="" />
    <glyph glyph-name="14days"
      unicode="&#xE002;"
      horiz-adv-x="1001" d="M639.1384999999999 274.2840000000001L786.2855 422.432L639.1384999999999 569.579L607.1065 537.547L699.1984999999999 444.454L468.9684999999999 444.454L468.9684999999999 399.409L699.1984999999999 399.409L607.1065 306.3159999999999zM361.8615 454.4639999999999L214.7145 307.317L361.8615 160.1700000000001L393.8935 192.202L301.8015000000001 284.2940000000001L532.0314999999999 284.2940000000001L532.0314999999999 329.3390000000001L301.8015000000001 329.3390000000001L393.8935 422.432z" />
    <glyph glyph-name="4G"
      unicode="&#xE003;"
      horiz-adv-x="1000.9999999999999" d="M500.4999999999998 31.7083333333334C247.5806666666667 31.7083333333334 41.7083333333333 237.5806666666668 41.7083333333333 490.5000000000001S247.5806666666667 949.2916666666666 500.4999999999998 949.2916666666666S959.2916666666666 743.4193333333333 959.2916666666666 490.5000000000001S753.4193333333333 31.7083333333334 500.4999999999998 31.7083333333334zM500.4999999999998 926.1018333333334C260.26 926.1018333333334 64.8981666666667 730.74 64.8981666666667 490.5000000000001S260.26 54.8981666666667 500.4999999999998 54.8981666666667S936.1018333333332 250.2600000000001 936.1018333333332 490.5000000000001S740.7399999999999 926.1018333333334 500.4999999999998 926.1018333333334zM493.1593333333332 722.732C384.8845 722.732 297.1301666666667 634.9776666666667 297.1301666666667 526.7028333333333C297.1301666666667 418.428 493.1593333333332 243.9203333333334 493.1593333333332 243.9203333333334S689.0216666666666 418.4280000000001 689.0216666666666 526.7028333333333C689.0216666666666 634.8108333333333 601.2673333333332 722.732 493.1593333333332 722.732zM479.9794999999999 490.8336666666667H462.7956666666665V463.8066666666667C462.7956666666665 462.3051666666668 457.9574999999999 462.3051666666668 454.2871666666666 462.3051666666668C450.6168333333333 462.3051666666668 445.2781666666666 462.3051666666668 445.2781666666666 463.8066666666667V490.8336666666667H386.8865C385.8854999999999 490.8336666666667 385.7186666666667 492.502 385.7186666666667 496.3391666666667C385.7186666666667 500.3431666666667 385.8854999999999 501.5110000000001 386.7196666666667 502.6788333333334L447.2801666666666 598.2743333333334C448.2811666666666 599.6090000000002 451.9515 599.6090000000002 455.4549999999999 599.6090000000002C458.9584999999998 599.6090000000002 462.7956666666664 599.6090000000002 462.7956666666664 598.2743333333334V506.5160000000001H479.9794999999999C481.4809999999998 506.5160000000001 481.4809999999998 502.5120000000001 481.4809999999998 498.6748333333334C481.4809999999999 494.8376666666667 481.4809999999999 490.8336666666667 479.9794999999999 490.8336666666667zM600.4331666666666 501.1773333333333C600.4331666666666 474.6508333333334 582.582 460.3031666666667 551.5509999999999 460.3031666666667C520.0195 460.3031666666667 502.502 474.8176666666667 502.502 498.6748333333333V561.2373333333333C502.502 590.9336666666667 522.8556666666666 601.4441666666667 551.0504999999999 601.4441666666667C564.564 601.4441666666667 578.7448333333333 598.1075 588.588 593.4361666666666C590.5899999999999 592.4351666666666 584.7508333333333 577.4201666666667 582.4151666666667 578.2543333333333C572.572 582.7588333333333 560.7268333333334 585.595 551.7178333333334 585.595C537.7038333333334 585.595 520.8536666666668 579.7558333333334 520.8536666666668 560.7368333333334V502.3451666666666C520.8536666666668 483.1593333333333 535.3681666666666 475.6518333333333 551.7178333333334 475.6518333333333C568.9016666666668 475.6518333333333 582.2483333333333 482.6588333333333 582.2483333333333 502.0115V521.8646666666666H556.3891666666667C554.8876666666667 521.8646666666666 554.8876666666667 525.8686666666665 554.8876666666667 529.8726666666666C554.8876666666667 533.5429999999999 554.8876666666667 537.8806666666667 556.3891666666667 537.8806666666667H600.4331666666667L600.4331666666666 501.1773333333333L600.4331666666666 501.1773333333333zM445.2781666666666 506.3491666666667L445.2781666666666 567.4101666666667L406.9065 506.3491666666667z" />
    <glyph glyph-name="acrobat"
      unicode="&#xE004;"
      horiz-adv-x="1000.9999999999999" d="M464.7976666666667 663.8398333333334L464.7976666666667 663.8398333333334C469.9694999999999 663.8398333333334 469.9694999999999 663.8398333333334 464.7976666666667 663.8398333333334C469.9694999999999 684.1935000000001 474.9744999999999 694.3703333333334 474.9744999999999 709.719V719.8958333333334C480.1463333333331 745.4213333333333 480.1463333333331 765.775 474.9744999999999 770.9468333333333C474.9744999999999 770.9468333333333 474.9744999999999 770.9468333333333 474.9744999999999 776.1186666666666L469.8026666666667 781.2905L469.8026666666667 781.2905L469.8026666666667 781.2905C469.8026666666667 781.2905 469.8026666666667 776.1186666666666 464.6308333333333 776.1186666666666C454.6208333333332 745.4213333333333 454.6208333333332 709.719 464.7976666666667 663.8398333333334L464.7976666666667 663.8398333333334zM311.8115 312.1551666666668C301.6346666666667 306.9833333333334 291.4578333333333 301.9783333333334 286.286 296.8065000000002C250.7505 266.2760000000001 225.225 230.5736666666667 220.0531666666667 215.225L220.0531666666667 215.225L220.0531666666667 215.225L220.0531666666667 215.225C250.7505 220.3968333333335 281.281 250.9273333333333 311.8115 312.1551666666668C316.9833333333333 312.1551666666668 316.9833333333333 312.1551666666668 311.8115 312.1551666666668C316.9833333333333 312.1551666666668 311.8115 312.1551666666668 311.8115 312.1551666666668zM780.9468333333333 388.5648333333334C775.775 393.7366666666667 755.4213333333333 408.9185 684.0166666666667 408.9185C678.8448333333332 408.9185 678.8448333333332 408.9185 673.8398333333332 408.9185L673.8398333333332 408.9185C673.8398333333332 408.9185 673.8398333333332 408.9185 673.8398333333332 403.7466666666666C709.5421666666665 388.3979999999999 745.2444999999999 378.2211666666666 770.77 378.2211666666666C775.9418333333333 378.2211666666666 775.9418333333333 378.2211666666666 780.9468333333333 378.2211666666666L780.9468333333333 378.2211666666666H786.1186666666667C786.1186666666667 378.2211666666666 786.1186666666667 378.2211666666666 786.1186666666667 383.3929999999999L786.1186666666667 383.3929999999999C785.9518333333333 383.3930000000001 780.9468333333333 383.3930000000001 780.9468333333333 388.5648333333334zM857.3564999999999 949.2916666666666H143.6435C87.5875 949.2916666666666 41.7083333333333 903.4125 41.7083333333333 847.3565V133.6435000000001C41.7083333333333 77.5875000000001 87.5875 31.7083333333334 143.6435 31.7083333333334H857.3565000000001C913.4125 31.7083333333334 959.2916666666666 77.5875000000001 959.2916666666666 133.6435000000001V847.3565C959.2916666666666 903.4125 913.4125 949.2916666666666 857.3564999999999 949.2916666666666zM801.3004999999999 347.6906666666667C791.1236666666666 342.5188333333333 775.775 337.5138333333333 755.4213333333333 337.5138333333333C714.714 337.5138333333333 653.4861666666667 347.6906666666667 602.4351666666666 373.2161666666666C515.8486666666668 363.0393333333333 449.449 352.8625 398.5648333333334 332.5088333333333C393.3929999999999 332.5088333333333 393.3929999999999 332.5088333333333 388.3879999999999 327.3369999999999C327.1601666666666 220.3968333333335 276.276 169.3458333333334 235.4018333333333 169.3458333333334C225.225 169.3458333333334 220.0531666666667 169.3458333333334 215.0481666666667 174.5176666666668L189.5226666666667 189.8663333333334V195.0381666666668C184.3508333333333 205.2150000000002 184.3508333333333 210.3868333333335 184.3508333333333 220.5636666666668C189.5226666666667 246.0891666666668 220.0531666666667 291.9683333333335 281.281 327.6706666666668C291.4578333333333 332.8425000000001 306.8065 343.0193333333334 327.1601666666666 353.1961666666669C342.5088333333333 378.7216666666668 357.6906666666667 409.2521666666668 378.2111666666666 444.9545000000002C403.7366666666666 496.0055000000002 418.9185 546.8896666666668 434.2671666666667 592.7688333333334L434.2671666666667 592.7688333333334C413.9135 653.9966666666668 403.7366666666666 689.6990000000001 424.0903333333333 760.9368333333334C429.2621666666667 781.2905000000001 444.444 801.6441666666667 464.7976666666667 801.6441666666667H474.9744999999999C485.1513333333332 801.6441666666667 495.3281666666666 796.4723333333334 505.5049999999998 791.4673333333334C541.2073333333334 755.7650000000001 525.8586666666667 674.1835000000001 505.5049999999998 607.9506666666667C505.5049999999998 602.7788333333334 505.5049999999998 602.7788333333334 505.5049999999998 602.7788333333334C525.8586666666667 546.7228333333335 556.556 500.8436666666668 587.0865 470.3131666666668C602.4351666666666 460.1363333333334 612.6120000000001 449.9595000000002 632.9656666666667 439.7826666666668C658.4911666666667 439.7826666666668 678.8448333333333 444.9545000000002 699.1985 444.9545000000002C760.4263333333333 444.9545000000002 801.1336666666667 434.7776666666668 816.4823333333334 409.2521666666668C821.6541666666667 399.0753333333335 821.6541666666667 388.8985000000002 821.6541666666667 378.7216666666668C816.4823333333333 373.2161666666667 811.4773333333333 358.0343333333334 801.3004999999999 347.6906666666667zM469.9694999999999 546.556C459.7926666666667 510.8536666666668 439.4389999999999 470.1463333333334 418.9185 424.2671666666668C408.7416666666666 403.9135000000001 398.5648333333333 388.5648333333335 388.3879999999999 368.2111666666667H393.5598333333333H398.7316666666667L398.7316666666667 368.2111666666667C464.9644999999998 393.7366666666667 526.1923333333333 408.9185 566.8996666666666 414.0903333333333C556.7228333333333 419.2621666666668 551.551 424.2671666666668 546.546 429.439C520.8536666666666 459.9695 490.3231666666666 500.6768333333334 469.9694999999999 546.556z" />
    <glyph glyph-name="add-ons"
      unicode="&#xE005;"
      horiz-adv-x="1000.9999999999999" d="M41.8751666666666 490.5000000000001C41.8751666666666 598.1075000000001 141.8083333333333 590.4331666666667 182.6825 561.9046666666668C236.0691666666667 525.7018333333334 253.0861666666667 579.9226666666667 253.0861666666667 615.2913333333333C253.0861666666667 651.4941666666666 217.8843333333333 758.1006666666667 199.6995 794.3035C181.6815 830.5063333333334 217.7175 844.6871666666667 234.9013333333334 847.6901666666668C324.324 865.7081666666667 376.7096666666667 883.893 411.9115 883.893S430.2631666666667 847.5233333333333 430.2631666666667 847.5233333333333L412.2451666666666 776.1186666666666C394.2271666666666 704.7139999999999 447.447 668.5111666666667 500.8336666666665 668.5111666666667S606.4391666666667 704.7139999999999 589.4221666666667 776.1186666666666L571.0704999999999 847.5233333333333C571.0704999999999 847.5233333333333 553.0524999999999 883.7261666666667 589.0885 883.7261666666667C624.2903333333334 883.7261666666667 677.677 865.7081666666667 765.0976666666667 847.5233333333333C782.2814999999999 843.6861666666666 818.4843333333333 829.5053333333333 800.2995 794.1366666666667C783.1156666666666 757.9338333333334 747.9138333333334 651.3273333333334 747.9138333333334 615.1245C747.9138333333334 579.9226666666666 765.0976666666667 525.7018333333333 818.3175 561.7378333333334C860.1926666666666 589.2653333333333 959.1248333333332 597.9406666666666 959.1248333333332 490.3331666666667S859.1916666666667 391.401 818.3175000000001 418.9285C764.9308333333335 455.1313333333333 747.9138333333334 400.9105 747.9138333333334 365.5418333333334C747.9138333333334 329.3390000000001 783.1156666666668 222.7325000000001 801.3005000000002 186.5296666666667C819.3185000000001 150.3268333333333 783.2825000000001 136.146 766.0986666666668 133.143C677.5101666666667 115.1250000000001 625.2913333333333 96.9401666666665 590.0895 96.9401666666665C554.8876666666667 96.9401666666665 572.0715000000001 133.143 572.0715000000001 133.143L590.0895 204.5476666666667C608.1075000000001 275.9523333333333 554.8876666666667 312.1551666666667 501.501 312.1551666666667S395.8955 275.9523333333333 412.9125000000001 204.5476666666667L430.9305 133.143C430.9305 133.143 448.9485000000001 96.9401666666665 412.9125 96.9401666666665C377.7106666666667 96.9401666666665 324.3240000000001 114.9581666666665 236.9033333333334 133.143C219.7195 136.9801666666667 183.5166666666667 151.161 201.7015 186.5296666666667C219.7195000000001 222.7325 255.0881666666667 329.3390000000001 255.0881666666667 365.5418333333334C255.0881666666667 401.7446666666666 237.0701666666667 454.9645 184.6845 418.9285C141.8083333333333 390.5668333333334 41.8751666666666 382.8925000000001 41.8751666666666 490.5000000000001" />
    <glyph glyph-name="add"
      unicode="&#xE006;"
      horiz-adv-x="1000.9999999999999" d="M449.449 949.2916666666666H551.3841666666666V31.7083333333334H449.449V949.2916666666666zM41.7083333333333 541.551H959.2916666666666V439.6158333333334H41.7083333333333V541.551z" />
    <glyph glyph-name="adjust"
      unicode="&#xE007;"
      horiz-adv-x="1000.9999999999999" d="M942.1078333333334 833.3425L828.1606666666667 720.2294999999999L763.0956666666667 752.762L730.5631666666667 817.827L843.6761666666666 931.7741666666666C818.8180000000001 943.2856666666665 791.9578333333334 948.958 763.2625 948.958C654.9876666666667 948.958 566.8996666666667 860.87 566.8996666666667 752.5951666666667C566.8996666666667 732.9088333333334 569.7358333333334 713.8898333333334 575.2413333333334 696.0386666666666L294.6276666666667 416.0923333333334C276.6096666666666 421.5978333333335 257.7575 424.4340000000001 238.0711666666667 424.4340000000001C129.9631666666667 425.4350000000001 41.7083333333333 337.1801666666668 41.7083333333333 228.0711666666668C41.7083333333333 199.3758333333334 47.5475 172.5156666666667 58.8921666666667 147.6575L173.0061666666667 260.6036666666667L238.0711666666667 228.0711666666668L270.6036666666667 163.0061666666667L157.4906666666667 49.059C182.3488333333332 37.5475 209.209 31.8751666666668 237.9043333333333 31.8751666666668C346.1791666666666 31.8751666666668 434.2671666666667 119.9631666666667 434.2671666666667 228.2380000000001C434.2671666666667 247.9243333333334 431.431 266.9433333333334 425.9255 284.9613333333334L706.2055 565.0745000000001C724.2235 559.5690000000001 743.0756666666666 556.7328333333335 762.762 556.7328333333335C871.2036666666667 555.565 959.2916666666666 643.8198333333333 959.2916666666666 752.9288333333334C959.2916666666666 781.6241666666667 953.4525 809.4853333333333 942.1078333333334 833.3425z" />
    <glyph glyph-name="alternative_offer"
      unicode="&#xE008;"
      horiz-adv-x="1000.9999999999999" d="M520.6868333333332 282.1251666666667H287.1201666666666C270.6036666666666 282.1251666666667 256.7564999999999 268.9453333333335 256.7564999999999 253.4298333333335C256.7564999999999 237.7475000000002 270.6036666666666 224.7345000000002 287.1201666666666 224.7345000000002H520.6868333333332C537.2033333333331 224.7345000000002 551.0504999999998 237.9143333333334 550.8836666666666 253.4298333333335C550.8836666666665 269.1121666666668 537.0364999999998 282.1251666666667 520.6868333333332 282.1251666666667zM520.6868333333332 396.2391666666668H287.1201666666666C270.6036666666666 396.2391666666668 256.7564999999999 383.0593333333335 256.7564999999999 367.5438333333334C256.7564999999999 351.8615000000001 270.6036666666666 338.8485000000001 287.1201666666666 338.8485000000001H520.6868333333332C537.2033333333331 338.8485000000001 551.0504999999998 352.0283333333334 550.8836666666666 367.5438333333334C550.8836666666665 383.0593333333335 537.0364999999998 396.2391666666668 520.6868333333332 396.2391666666668zM520.6868333333332 510.0195H287.1201666666666C270.6036666666666 510.0195 256.7564999999999 496.8396666666667 256.7564999999999 481.3241666666667C256.7564999999999 465.6418333333334 270.6036666666666 452.6288333333334 287.1201666666666 452.6288333333334H520.6868333333332C537.2033333333331 452.6288333333334 551.0504999999998 465.8086666666667 550.8836666666666 481.3241666666667C550.8836666666665 496.8396666666667 537.0364999999998 510.0195 520.6868333333332 510.0195zM42.3756666666666 760.6031666666667V31.7083333333334H771.2704999999997V605.1145L609.1084999999998 760.6031666666667H42.3756666666666zM705.2044999999998 101.7783333333334H108.7753333333332V696.5391666666667H561.0604999999998V559.2353333333333H705.2044999999999V101.7783333333334zM796.2954999999998 949.2916666666666L229.7294999999999 949.2916666666666L229.7294999999999 802.4783333333334L295.9623333333333 802.4783333333334L295.9623333333333 885.2276666666667L748.2474999999998 885.2276666666667L748.2474999999998 747.9238333333334L892.3914999999998 747.9238333333334L892.3914999999998 290.4668333333334L813.1456666666664 290.4668333333334L813.1456666666664 220.3968333333335L958.6243333333334 220.3968333333335L958.6243333333334 793.803z" />
    <glyph glyph-name="apperror"
      unicode="&#xE009;"
      horiz-adv-x="1000.9999999999999" d="M956.1218333333333 32.3756666666667C956.7891666666666 32.3756666666667 958.6243333333334 32.3756666666667 959.2916666666666 32.3756666666667C958.9579999999999 32.3756666666667 958.6243333333334 32.3756666666667 957.7901666666666 32.3756666666667C956.956 32.3756666666667 956.2886666666666 32.3756666666667 956.1218333333333 32.3756666666667zM957.7901666666666 881.5573333333333C957.7901666666666 924.0998333333334 933.0988333333333 948.6243333333334 890.89 948.6243333333334C668.1674999999999 948.6243333333334 142.9761666666667 948.7911666666666 103.2698333333333 948.6243333333334C74.2408333333333 948.4575 51.3846666666666 930.4395 43.8771666666666 902.5783333333334C43.3766666666666 900.7431666666666 42.3756666666666 899.2416666666667 41.7083333333333 897.5733333333334C41.7083333333333 609.2853333333333 41.7083333333333 320.8305000000001 41.7083333333333 32.5425C44.5445 32.7093333333335 957.7901666666666 32.5425 957.7901666666666 32.5425S957.7901666666666 703.713 957.7901666666666 881.5573333333333zM103.2698333333333 93.4366666666667C103.2698333333333 318.1611666666667 103.2698333333333 541.7178333333334 103.2698333333333 765.1076666666668C368.2011666666667 765.1076666666668 632.4651666666666 765.1076666666668 897.5633333333333 765.1076666666668C897.5633333333333 623.4661666666667 897.5633333333333 237.5806666666668 897.5633333333333 93.4366666666667C707.2064999999999 93.4366666666667 155.3218333333333 93.4366666666667 103.2698333333333 93.4366666666667zM529.5289999999999 362.8725000000001C529.5289999999999 453.7966666666667 535.3681666666666 543.3861666666667 535.3681666666666 633.3093333333334C511.5109999999999 633.3093333333334 488.3211666666666 633.3093333333334 465.2981666666665 633.3093333333334C465.2981666666665 542.7188333333334 471.1373333333332 452.7956666666666 471.1373333333332 362.8725000000001C495.1613333333332 362.8725000000001 506.1723333333333 362.8725000000001 529.5289999999999 362.8725000000001zM535.535 235.9123333333333C535.535 259.7695 535.535 283.4598333333334 535.535 306.9833333333334C511.6778333333332 306.9833333333334 488.4879999999999 306.9833333333334 465.4649999999999 306.9833333333334C465.4649999999999 283.1261666666667 465.4649999999999 259.4358333333334 465.4649999999999 235.9123333333333C489.3221666666665 235.9123333333333 512.1783333333333 235.9123333333333 535.535 235.9123333333333z" />
    <glyph glyph-name="arrow-down"
      unicode="&#xE00A;"
      horiz-adv-x="1000.9999999999999" d="M493.5764166666664 240.9173333333333C490.7402499999997 241.251 488.4045833333331 241.7515 485.5684166666665 242.4188333333333C478.3945833333331 244.4208333333333 471.8880833333332 247.7575 465.882083333333 252.4288333333333C464.0469166666663 253.9303333333333 461.3775833333331 253.9303333333333 459.7092499999997 255.5986666666667C458.7082499999996 256.5996666666666 458.374583333333 258.1011666666666 457.3735833333332 259.1021666666667L58.4750833333332 646.3223333333333C36.2862499999997 667.8438333333334 36.2862499999997 702.8788333333334 58.4750833333332 724.5671666666667C80.6639166666664 746.0886666666668 116.6999166666665 746.0886666666668 138.8887499999997 724.5671666666667L443.1927499999998 429.1053333333334H557.8072499999998L862.1112499999998 724.5671666666667C884.3000833333331 746.0886666666668 920.3360833333332 746.0886666666668 942.5249166666669 724.5671666666667C964.7137499999998 703.0456666666668 964.7137499999998 668.0106666666668 942.5249166666669 646.3223333333334L543.79325 259.2690000000001C542.7922499999999 258.1011666666668 542.29175 256.5996666666668 541.2907499999999 255.5986666666668C528.2777499999999 242.9193333333334 510.5934166666664 238.5816666666667 493.5764166666664 240.9173333333333z" />
    <glyph glyph-name="arrow-next"
      unicode="&#xE00B;"
      horiz-adv-x="1000.9999999999999" d="M737.4867499999998 497.507C737.1530833333334 500.3431666666667 736.8194166666667 502.8456666666667 735.98525 505.515C733.8164166666666 512.5219999999999 730.3129166666668 519.1953333333333 725.4747499999999 525.2013333333334C724.1400833333332 527.2033333333334 724.1400833333332 529.5390000000001 722.3049166666667 531.3741666666667C721.3039166666665 532.3751666666667 719.8024166666667 532.7088333333334 718.6345833333332 533.7098333333333L320.2365833333334 931.4405C273.0227499999999 978.8211666666666 216.2994166666666 922.2646666666666 263.5132500000001 875.2176666666667L652.2349166666665 490.6668333333334L263.5132500000001 105.9491666666668C216.2994166666666 58.7353333333334 272.8559166666667 2.3456666666667 320.2365833333334 49.5595000000002L718.6345833333332 447.2901666666668C719.9692500000001 448.1243333333334 721.3039166666667 448.6248333333334 722.4717499999999 449.7926666666667C735.3179166666666 462.8056666666666 739.8224166666666 480.49 737.4867499999998 497.507z" />
    <glyph glyph-name="arrow-prev"
      unicode="&#xE00C;"
      horiz-adv-x="1000.9999999999999" d="M263.4298333333334 483.4930000000001C263.7635 480.6568333333334 264.0971666666667 478.1543333333334 264.9313333333334 475.485C267.1001666666667 468.4780000000001 270.6036666666667 461.8046666666668 275.4418333333334 455.7986666666667C276.7765000000001 453.7966666666667 276.7765000000001 451.461 278.6116666666667 449.6258333333334C279.6126666666667 448.6248333333333 281.1141666666667 448.2911666666667 282.282 447.2901666666668L680.8468333333333 49.5595000000002C728.0606666666665 2.1788333333335 784.7839999999999 58.7353333333334 737.5701666666666 105.7823333333336L348.8485 490.3331666666668L737.5701666666666 875.0508333333335C784.7839999999999 922.2646666666668 728.2275 978.6543333333336 680.8468333333333 931.4405000000002L282.282 533.7098333333333C280.9473333333333 532.8756666666666 279.6126666666667 532.3751666666667 278.4448333333333 531.2073333333333C265.5986666666666 518.1943333333334 261.0941666666667 500.51 263.4298333333334 483.4930000000001z" />
    <glyph glyph-name="arrow-step-down"
      unicode="&#xE00D;"
      horiz-adv-x="1000.9999999999999" d="M500.4999999999999 148.9921666666668L917.5833333333331 566.0755H694.8608333333333C694.8608333333333 566.0755 694.8608333333333 645.9886666666667 695.1945 776.6191666666666C695.1945 820.83 678.5111666666666 832.0078333333333 639.8058333333333 832.0078333333333C614.6139999999999 832.0078333333333 403.2361666666668 832.0078333333333 361.5278333333334 832.0078333333333S306.1391666666668 818.3275 306.1391666666668 776.6191666666666S306.1391666666668 566.0755 306.1391666666668 566.0755H83.4166666666667L500.4999999999999 148.9921666666668z" />
    <glyph glyph-name="arrow-step"
      unicode="&#xE00E;"
      horiz-adv-x="1000.9999999999999" d="M842.0078333333332 490.5000000000001L424.9245 907.5833333333334V684.8608333333334C424.9245 684.8608333333334 345.0113333333333 684.8608333333334 214.3808333333333 685.1945000000001C170.17 685.1945000000001 158.9921666666667 668.5111666666667 158.9921666666667 629.8058333333333C158.9921666666667 604.614 158.9921666666667 393.2361666666667 158.9921666666667 351.5278333333333C158.9921666666667 309.8195000000001 172.6725 296.1391666666667 214.3808333333333 296.1391666666667S424.9245 296.1391666666667 424.9245 296.1391666666667V73.4166666666667L842.0078333333332 490.5000000000001z" />
    <glyph glyph-name="arrow-up"
      unicode="&#xE00F;"
      horiz-adv-x="1000.9999999999999" d="M508.8416666666666 732.4083333333333L508.8416666666666 732.4083333333333C525.525 732.4083333333333 533.6998333333332 724.0666666666666 533.6998333333332 724.0666666666666H542.0414999999999L542.0414999999999 724.0666666666666L940.6063333333332 342.0183333333335C965.4644999999998 317.1601666666668 965.4644999999998 283.9603333333333 940.6063333333332 267.2770000000001C915.7481666666666 242.4188333333334 882.5483333333333 242.4188333333334 857.5233333333333 267.2770000000001L558.558 557.9006666666667H442.2751666666667L143.4766666666667 267.2770000000001C118.6185 242.4188333333334 85.4186666666667 242.4188333333334 60.3936666666667 267.2770000000001S35.5355 325.3350000000001 60.3936666666667 342.0183333333335L458.9585 724.0666666666666L458.9585 724.0666666666666C475.6418333333334 732.4083333333333 492.1583333333333 732.4083333333333 508.8416666666666 732.4083333333333z" />
    <glyph glyph-name="attachment"
      unicode="&#xE010;"
      horiz-adv-x="1000.9999999999999" d="M500.4999999999998 31.7083333333334C441.1073333333333 31.7083333333334 385.7186666666667 50.8941666666667 344.5108333333333 86.2628333333335C296.6296666666667 127.4706666666668 271.7715 184.8613333333335 271.7715 252.7625000000002V776.1186666666666C271.7715 889.899 354.1871666666667 949.2916666666666 435.435 949.2916666666666S599.0984999999998 889.899 599.0984999999998 776.1186666666666V328.3380000000001C599.0984999999998 290.9673333333334 582.9156666666665 268.1111666666667 568.4011666666665 255.5986666666667C551.2173333333333 240.25 528.1943333333334 231.7415 503.3361666666667 231.7415C454.6208333333333 231.7415 402.9025000000001 265.2750000000001 402.9025000000001 327.5038333333333V688.0306666666668H467.9675V328.3380000000001C467.9675 297.6406666666668 501.501 297.6406666666668 502.3351666666667 297.6406666666668C511.0105 297.6406666666668 518.518 300.4768333333334 524.3571666666667 305.3150000000003C530.0294999999999 310.1531666666667 533.0325 317.8275000000001 533.0325 328.3380000000002V776.1186666666666C533.0325 850.6931666666667 484.3171666666668 884.2266666666667 435.4350000000001 884.2266666666667S336.8365000000001 850.6931666666667 336.8365000000001 776.1186666666666V252.7625000000001C336.8365000000001 146.4896666666667 421.9215000000001 97.7743333333334 500.5000000000001 97.7743333333334S664.1634999999999 145.6555000000001 664.1634999999999 252.7625000000001V776.1186666666666H729.2284999999999V252.7625000000001C730.0626666666667 108.2848333333334 614.2803333333331 31.7083333333334 500.4999999999998 31.7083333333334" />
    <glyph glyph-name="audio"
      unicode="&#xE011;"
      horiz-adv-x="1000.9999999999999" d="M879.4619166666666 199.0421666666667C871.7875833333333 199.0421666666667 865.11425 201.8783333333333 858.2740833333334 206.7165000000001C844.7605833333333 218.2280000000001 842.9254166666667 238.4148333333335 854.4369166666667 251.9283333333335C981.3970833333332 403.9135000000001 980.3960833333332 575.0845000000002 854.4369166666667 732.9088333333334C842.9254166666667 747.2565000000002 845.7615833333333 767.6101666666668 859.2750833333333 778.1206666666668C873.62275 789.6321666666668 893.9764166666666 786.7960000000002 904.4869166666666 773.2825000000001C1050.6329166666665 591.4341666666668 1050.6329166666665 386.5628333333334 904.4869166666666 210.5536666666668C898.64775 202.8793333333334 889.13825 199.0421666666667 879.4619166666666 199.0421666666667M774.52375 284.6276666666668C767.8504166666665 284.6276666666668 760.1760833333332 286.6296666666667 754.3369166666665 292.3020000000002C740.8234166666665 303.8135000000001 738.9882499999999 324.0003333333334 750.4997499999998 338.5148333333334C831.2470833333332 434.7776666666668 830.4129166666665 543.3861666666668 750.4997499999998 643.4861666666668C738.9882499999999 656.9996666666668 741.8244166666666 678.1875000000001 755.3379166666665 688.6980000000001C768.8514166666665 700.2095000000002 790.0392499999998 697.3733333333334 800.5497499999999 683.8598333333334C901.4839166666666 558.9016666666666 900.6497499999998 418.4280000000001 800.5497499999999 297.1401666666668C792.8754166666666 289.4658333333334 784.2000833333333 284.6276666666668 774.52375 284.6276666666668M662.0780833333333 351.0273333333334C654.40375 351.0273333333334 647.7304166666667 353.8635 640.89025 358.7016666666667C627.3767499999999 370.2131666666667 625.5415833333334 390.4000000000001 637.0530833333333 404.9145C684.1000833333333 461.6378333333333 684.1000833333333 522.1983333333334 637.0530833333333 580.9236666666667C625.5415833333334 594.4371666666666 628.37775 615.625 641.8912499999999 626.1355C655.4047499999999 637.6469999999999 676.5925833333333 634.8108333333333 687.1030833333333 621.2973333333333C754.50375 538.548 754.50375 444.2871666666666 687.1030833333333 363.5398333333334C680.2629166666666 354.8645 670.7534166666666 351.0273333333334 662.0780833333333 351.0273333333334M270.6870833333333 628.9716666666667L96.5130833333333 628.9716666666667L96.5130833333333 352.0283333333334L270.6870833333333 351.0273333333334L548.6314166666667 74.0840000000001L548.6314166666667 906.916z" />
    <glyph glyph-name="avaya"
      unicode="&#xE012;"
      horiz-adv-x="1000.9999999999999" d="M729.8958333333333 887.897H271.1041666666667L41.7083333333333 490.5000000000001L271.1041666666667 93.103H729.8958333333333L959.2916666666666 490.5000000000001L729.8958333333333 887.897zM654.1535 319.9963333333334C648.648 333.3430000000001 510.6768333333333 636.1455000000001 510.6768333333333 636.1455000000001S445.445 497.0065 417.4169999999999 437.9475C464.4639999999999 437.9475 508.0074999999999 437.9475 554.0535 437.9475C560.3931666666667 420.2631666666666 566.2323333333334 404.0803333333334 573.2393333333333 384.394C509.6758333333332 384.394 451.7846666666666 384.394 394.0603333333334 384.394C383.3829999999999 362.3720000000002 373.5398333333333 340.5168333333334 363.6966666666667 320.1631666666667C340.1731666666667 320.1631666666667 316.4828333333334 320.1631666666667 288.9553333333334 320.1631666666667C353.0193333333334 455.1313333333333 417.4170000000001 587.7638333333333 480.8136666666666 721.2305C496.8296666666668 721.2305 534.0335 721.2305 534.0335 721.2305L727.0596666666667 320.1631666666667C727.0596666666667 319.9963333333334 681.0136666666666 319.9963333333334 654.1535 319.9963333333334z" />
    <glyph glyph-name="basket"
      unicode="&#xE013;"
      horiz-adv-x="1000.9999999999999" d="M408.7416666666666 276.6196666666667C375.0413333333334 276.6196666666667 347.5138333333333 249.2590000000002 347.5138333333333 215.3918333333335S375.0413333333334 154.1640000000001 408.7416666666666 154.1640000000001C442.6088333333334 154.1640000000001 469.9694999999999 181.5246666666667 469.9694999999999 215.3918333333335S442.7756666666666 276.6196666666667 408.7416666666666 276.6196666666667zM745.2444999999999 276.6196666666667C711.5441666666666 276.6196666666667 684.0166666666667 249.2590000000002 684.0166666666667 215.3918333333335S711.5441666666666 154.1640000000001 745.2444999999999 154.1640000000001C779.1116666666666 154.1640000000001 806.4723333333333 181.5246666666667 806.4723333333333 215.3918333333335S779.1116666666666 276.6196666666667 745.2444999999999 276.6196666666667zM941.6073333333331 732.5751666666667C938.2706666666666 733.9098333333334 934.7671666666668 734.4103333333333 931.4305 734.5771666666667H227.5606666666666L184.6844999999999 826.5023333333334H42.8761666666666V765.2745H145.8123333333333L359.8595 306.9833333333334H797.4633333333333L958.1238333333334 692.5351666666667C964.6303333333332 708.3843333333334 957.2896666666666 726.2355 941.6073333333331 732.5751666666667zM756.4223333333332 368.3780000000001H398.7316666666666L255.4218333333333 675.3513333333334H884.5503333333332L756.4223333333332 368.3780000000001z" />
    <glyph glyph-name="battery"
      unicode="&#xE014;"
      horiz-adv-x="1000.9999999999999" d="M941.941 706.0486666666667C930.4295 717.8938333333333 916.0818333333332 724.0666666666666 899.2316666666666 724.0666666666666H176.0091666666667C159.6595 724.0666666666666 145.6455 718.0606666666667 133.8003333333333 706.0486666666667C121.7883333333333 694.0366666666666 115.9491666666667 680.0226666666667 115.9491666666667 663.673V581.7578333333333H69.2358333333333C53.8871666666667 581.7578333333333 41.8751666666667 569.7458333333334 41.8751666666667 554.2303333333334V424.4340000000001C41.8751666666667 408.9185 53.8871666666667 396.9065000000001 69.2358333333333 396.9065000000001H115.9491666666667V316.9933333333334C115.9491666666667 300.4768333333334 121.9551666666667 286.4628333333334 133.8003333333333 274.6176666666668C145.8123333333333 262.6056666666668 159.6595 256.5996666666668 176.0091666666667 256.5996666666668H899.0648333333332C915.915 256.5996666666668 930.5963333333332 262.4388333333334 941.7741666666666 274.1171666666668C953.2856666666665 285.9623333333334 959.1248333333332 300.6436666666667 959.1248333333332 316.9933333333334V663.673C959.2916666666666 680.1895 953.1188333333332 694.5371666666667 941.941 706.0486666666667L941.941 706.0486666666667zM904.0698333333332 317.327C904.0698333333332 313.8235 902.5683333333332 312.322 899.0648333333332 312.322H176.0091666666667C174.0071666666667 312.322 171.0041666666667 315.3250000000001 171.0041666666667 317.327V663.673C171.0041666666667 665.675 174.0071666666667 668.6780000000001 176.0091666666667 668.6780000000001H899.0648333333332C902.5683333333332 668.6780000000001 904.0698333333332 667.1765 904.0698333333332 663.673V317.327zM904.0698333333332 317.327" />
    <glyph glyph-name="blank-paper"
      unicode="&#xE015;"
      horiz-adv-x="1000.9999999999999" d="M867.6167499999999 62.2388333333333C867.6167499999999 45.3886666666666 853.9364166666666 31.7083333333334 837.08625 31.7083333333334H163.91375C147.0635833333333 31.7083333333334 133.38325 45.3886666666668 133.38325 62.2388333333333V918.7611666666666C133.38325 935.6113333333334 147.0635833333333 949.2916666666666 163.91375 949.2916666666666H607.5235833333332L867.6167499999999 704.3803333333333V62.2388333333333zM561.6444166666665 704.3803333333333V888.0638333333334H224.97475C208.1245833333333 888.0638333333334 194.44425 874.3835 194.44425 857.3665000000001V122.4656666666667C194.44425 105.6155 208.1245833333333 91.7683333333334 224.97475 91.7683333333334L775.6915833333333 92.6025000000001C792.54175 92.6025000000001 806.2220833333332 105.4486666666668 806.2220833333332 122.2988333333333V642.8188333333333H607.5235833333332H561.6444166666665V704.3803333333333zM622.8722499999999 873.883V704.3803333333333H792.2080833333332L622.8722499999999 873.883z" />
    <glyph glyph-name="bookmark"
      unicode="&#xE016;"
      horiz-adv-x="1000.9999999999999" d="M233.1495833333333 949.2916666666666L156.40625 872.5483333333334L156.40625 31.7083333333334L767.6835833333332 31.7083333333334L767.6835833333332 872.5483333333334L691.94125 872.5483333333334L691.94125 452.1283333333333L595.8452499999999 547.0564999999999L499.9160833333333 452.1283333333333L499.9160833333333 872.5483333333334L194.7779166666666 872.5483333333334L233.1495833333333 910.92L806.0552499999999 910.92L806.0552499999999 145.9891666666667L806.0552499999999 107.4506666666667L806.0552499999999 70.08L844.5937499999999 107.4506666666667L844.5937499999999 145.9891666666667L844.5937499999999 949.2916666666666z" />
    <glyph glyph-name="box"
      unicode="&#xE017;"
      horiz-adv-x="1000.9999999999999" d="M832.9988333333332 755.9318333333333L492.3251666666666 848.1906666666666L490.3231666666666 846.1886666666667L489.4889999999999 847.0228333333333L166.6664999999999 755.9318333333333L41.8751666666666 506.1823333333333L166.8333333333332 459.4690000000001V274.6176666666667C166.8333333333332 274.6176666666667 166.6664999999999 256.4328333333334 182.3488333333332 249.9263333333334L481.6478333333332 137.9811666666666C499.8326666666665 131.4746666666666 499.8326666666665 131.4746666666666 519.3521666666666 137.9811666666666L818.6511666666665 249.9263333333334C834.3334999999998 255.0981666666667 834.1666666666666 274.6176666666667 834.1666666666666 274.6176666666667V459.3021666666667L959.1248333333332 506.0155L832.9988333333332 755.9318333333333zM391.7246666666666 418.7616666666667L100.0999999999999 529.3721666666668L187.3538333333332 703.8798333333334L478.8116666666665 593.1025L391.7246666666666 418.7616666666667zM499.9994999999999 631.1405L226.7264999999999 734.0766666666667L493.6598333333332 808.6511666666667L773.1056666666665 734.0766666666667L499.9994999999999 631.1405zM607.9406666666665 418.7616666666667L520.6868333333331 594.604L812.3114999999998 703.8798333333334L899.565333333333 528.0375L607.9406666666665 418.7616666666667z" />
    <glyph glyph-name="broadband1"
      unicode="&#xE018;"
      horiz-adv-x="1000.9999999999999" d="M732.8154166666666 738.4143333333334L732.8154166666666 738.4143333333334L692.1080833333332 738.4143333333334L692.1080833333332 738.4143333333334L671.7544166666665 738.4143333333334L671.7544166666665 738.4143333333334L631.0470833333333 738.4143333333334L631.0470833333333 738.4143333333334L610.6934166666666 738.4143333333334L610.6934166666666 738.4143333333334L569.9860833333332 738.4143333333334L569.9860833333332 738.4143333333334L549.6324166666666 738.4143333333334L549.6324166666666 738.4143333333334L508.9250833333332 738.4143333333334L508.9250833333332 738.4143333333334L488.5714166666666 738.4143333333334L488.5714166666666 738.4143333333334L447.8640833333332 738.4143333333334L447.8640833333332 738.4143333333334L427.5104166666667 738.4143333333334L427.5104166666667 738.4143333333334L386.8030833333333 738.4143333333334L386.8030833333333 738.4143333333334L366.4494166666666 738.4143333333334L366.4494166666666 738.4143333333334L325.7420833333333 738.4143333333334L325.7420833333333 738.4143333333334L305.3884166666666 738.4143333333334L305.3884166666666 738.4143333333334L264.6810833333332 738.4143333333334L264.6810833333332 738.4143333333334L205.2884166666666 738.4143333333334L205.2884166666666 385.5618333333334L336.4194166666666 385.5618333333334L336.4194166666666 297.4738333333334L396.9799166666666 297.4738333333334L396.9799166666666 235.245L600.5165833333332 235.245L600.5165833333332 297.4738333333334L661.0770833333332 297.4738333333334L661.0770833333332 385.5618333333334L792.2080833333332 385.5618333333334L792.2080833333332 738.4143333333334zM859.6087499999998 882.892C896.6457499999999 882.892 926.6757499999998 852.8620000000001 926.6757499999998 815.825V167.3438333333334C926.6757499999998 130.3068333333334 896.6457499999999 100.2768333333335 859.6087499999998 100.2768333333335H141.5580833333332C104.5210833333332 100.2768333333335 74.4910833333332 130.3068333333334 74.4910833333332 167.3438333333334V815.825C74.4910833333332 852.8620000000001 104.5210833333332 882.892 141.5580833333332 882.892H859.6087499999998M859.6087499999998 915.5913333333332H141.5580833333332C86.5030833333332 915.5913333333332 41.7917499999999 870.88 41.7917499999999 815.825V167.3438333333334C41.7917499999999 112.2888333333333 86.5030833333332 67.5775000000001 141.5580833333332 67.5775000000001H859.4419166666667C914.4969166666664 67.5775000000001 959.20825 112.2888333333333 959.20825 167.3438333333334V815.825C959.3750833333334 870.88 914.6637499999998 915.5913333333332 859.6087499999998 915.5913333333332L859.6087499999998 915.5913333333332z" />
    <glyph glyph-name="broadband2"
      unicode="&#xE019;"
      horiz-adv-x="1000.9999999999999" d="M859.60875 882.892C896.6457500000001 882.892 926.6757500000002 852.8620000000001 926.6757500000002 815.825V167.3438333333334C926.6757500000002 130.3068333333334 896.6457500000001 100.2768333333335 859.60875 100.2768333333335H141.5580833333334C104.5210833333334 100.2768333333335 74.4910833333334 130.3068333333334 74.4910833333334 167.3438333333334V815.825C74.4910833333334 852.8620000000001 104.5210833333334 882.892 141.5580833333334 882.892H859.60875M859.60875 915.5913333333332H141.5580833333334C86.5030833333334 915.5913333333332 41.79175 870.88 41.79175 815.825V167.3438333333334C41.79175 112.2888333333333 86.5030833333334 67.5775000000001 141.5580833333334 67.5775000000001H859.4419166666667C914.4969166666668 67.5775000000001 959.20825 112.2888333333333 959.20825 167.3438333333334V815.825C959.3750833333334 870.88 914.66375 915.5913333333332 859.60875 915.5913333333332L859.60875 915.5913333333332zM207.1235833333334 656.6659999999999H276.8599166666667V209.2190000000001H207.1235833333334V656.6659999999999zM724.3069166666667 656.6659999999999H794.04325V209.2190000000001H724.3069166666667V656.6659999999999zM276.8599166666667 773.9498333333333H724.3069166666667V704.2135000000001H276.8599166666667V773.9498333333333z" />
    <glyph glyph-name="broken-screen"
      unicode="&#xE01A;"
      horiz-adv-x="1000.9999999999999" d="M661.4941666666666 949.2916666666666H339.5058333333334C282.282 949.2916666666666 242.9093333333333 909.919 242.9093333333333 852.6951666666666V128.3048333333334C242.9093333333333 71.0810000000001 282.282 31.7083333333334 339.5058333333334 31.7083333333334H661.4941666666666C718.718 31.7083333333334 758.0906666666666 71.0810000000001 758.0906666666666 128.3048333333334V852.6951666666666C758.0906666666666 909.919 718.718 949.2916666666666 661.4941666666666 949.2916666666666zM716.716 851.3605V676.8528333333334L498.8316666666666 514.524L441.9414999999999 546.0554999999999L549.3821666666665 851.1936666666666H716.716zM474.8076666666666 761.4373333333333L406.2391666666666 851.3605H506.506L474.8076666666666 761.4373333333333zM284.284 851.3605H355.355L458.7916666666665 715.8918333333334L392.392 527.3701666666668L474.6408333333333 481.8246666666667L339.0053333333333 166.5096666666667H284.284V851.3605zM500.4999999999999 65.7423333333334C482.1483333333333 65.7423333333334 467.3001666666667 80.5905 467.3001666666667 98.9421666666666C467.3001666666667 117.2938333333333 482.1483333333333 132.142 500.4999999999999 132.142C518.8516666666667 132.142 533.6998333333332 117.2938333333333 533.6998333333332 98.9421666666666C533.6998333333332 80.5905 518.8516666666667 65.7423333333334 500.4999999999999 65.7423333333334zM383.0493333333333 166.3428333333334L517.0165 477.487L716.8828333333332 626.3023333333333V166.3428333333334H383.0493333333333z" />
    <glyph glyph-name="building"
      unicode="&#xE01B;"
      horiz-adv-x="1000.9999999999999" d="M209.5426666666666 949.2916666666666V31.7083333333334H791.4573333333333V949.2916666666666H209.5426666666666zM391.391 273.283H280.4468333333333V384.2271666666667H391.391V273.283zM391.391 439.1153333333333H280.4468333333333V550.0595000000001H391.391V439.1153333333333zM391.391 604.7808333333334H280.4468333333333V715.725H391.391V604.7808333333334zM391.391 770.4463333333333H280.4468333333333V881.3905H391.391V770.4463333333333zM560.8936666666666 273.283H449.9495V384.2271666666667H560.8936666666666V273.283zM560.8936666666666 439.1153333333333H449.9495V550.0595000000001H560.8936666666666V439.1153333333333zM560.8936666666666 604.7808333333334H449.9495V715.725H560.8936666666666V604.7808333333334zM560.8936666666666 770.4463333333333H449.9495V881.3905H560.8936666666666V770.4463333333333zM730.3963333333334 273.283H619.4521666666667V384.2271666666667H730.3963333333334V273.283zM730.3963333333334 439.1153333333333H619.4521666666667V550.0595000000001H730.3963333333334V439.1153333333333zM730.3963333333334 604.7808333333334H619.4521666666667V715.725H730.3963333333334V604.7808333333334zM730.3963333333334 770.4463333333333H619.4521666666667V881.3905H730.3963333333334V770.4463333333333z" />
    <glyph glyph-name="bullet-check-negative"
      unicode="&#xE01C;"
      horiz-adv-x="1000.9999999999999" d="M448.7816666666667 319.9963333333334C447.7806666666666 318.4948333333334 447.1133333333333 316.9933333333334 445.9454999999999 315.6586666666667C439.9395 309.6526666666666 431.9315000000001 306.8165 424.0903333333333 306.9833333333334C416.2491666666667 306.8165 408.2411666666667 309.4858333333334 402.2351666666667 315.6586666666667C400.9005 316.9933333333334 400.2331666666667 318.4948333333333 399.3990000000001 319.9963333333334L249.4158333333334 470.1463333333334C237.7375000000001 481.8246666666667 237.7375000000001 500.6768333333334 249.4158333333334 512.3551666666667C261.0941666666667 524.0335 279.9463333333334 524.0335 291.6246666666667 512.3551666666667L424.0903333333333 379.8895000000001L709.5421666666667 665.3413333333334C721.2205 677.0196666666668 740.0726666666668 677.0196666666668 751.7510000000001 665.3413333333334C763.4293333333334 653.663 763.4293333333334 634.8108333333334 751.7510000000001 623.1325L448.7816666666667 319.9963333333334zM41.7083333333333 490.5000000000001C41.7083333333333 237.0801666666668 247.0801666666667 31.7083333333334 500.4999999999998 31.7083333333334S959.2916666666666 237.0801666666668 959.2916666666666 490.5000000000001S753.9198333333333 949.2916666666666 500.4999999999998 949.2916666666666S41.7083333333333 743.9198333333334 41.7083333333333 490.5000000000001z" />
    <glyph glyph-name="bullet-disc"
      unicode="&#xE01D;"
      horiz-adv-x="1000.9999999999999" d="M41.7083333333333 490.5000000000001C41.7083333333333 237.1163591505472 247.1163591505472 31.7083333333334 500.4999999999998 31.7083333333334C753.8836408494528 31.7083333333334 959.2916666666666 237.1163591505472 959.2916666666666 490.5000000000001C959.2916666666666 743.8836408494528 753.8836408494528 949.2916666666666 500.4999999999998 949.2916666666666C247.1163591505472 949.2916666666666 41.7083333333333 743.8836408494528 41.7083333333333 490.5000000000001z" />
    <glyph glyph-name="bullet-rev"
      unicode="&#xE01E;"
      horiz-adv-x="1000.9999999999999" d="M609.1084999999999 35.7123333333334C626.626 11.8551666666667 803.9698333333332 103.4466666666667 786.6191666666666 123.2998333333334L461.7946666666665 489.9995L786.6191666666666 859.3685C803.9698333333332 879.2216666666667 629.1285 970.6463333333334 609.1085 944.7871666666666L214.3808333333333 489.9995L609.1084999999999 35.7123333333334z" />
    <glyph glyph-name="bullet"
      unicode="&#xE01F;"
      horiz-adv-x="1000.9999999999999" d="M391.8915 35.7123333333334C374.374 11.8551666666667 197.0301666666666 103.4466666666667 214.3808333333333 123.2998333333334L539.2053333333333 490.1663333333333L214.3808333333333 859.3685C197.0301666666666 879.2216666666667 371.8715000000001 970.6463333333334 391.8915 944.7871666666666L786.6191666666666 489.9995L391.8915 35.7123333333334z" />
    <glyph glyph-name="calendar"
      unicode="&#xE020;"
      horiz-adv-x="1000.9999999999999" d="M133.8837500000001 949.2916666666666H867.1162499999999V826.3355H133.88375V949.2916666666666zM133.8837500000001 764.9408333333333V31.7083333333334H867.1162499999999V764.9408333333333L133.8837500000001 764.9408333333333L133.8837500000001 764.9408333333333zM379.62925 154.6645000000001H256.6730833333334V277.6206666666667H379.62925V154.6645000000001zM379.62925 339.0153333333334H256.6730833333334V461.9715H379.62925V339.0153333333334zM379.62925 523.3661666666667H256.6730833333334V641.9846666666667H379.62925V523.3661666666667zM559.6424166666667 154.6645000000001H436.6862500000001V277.6206666666667H559.6424166666667V154.6645000000001zM559.6424166666667 339.0153333333334H436.6862500000001V461.9715H559.6424166666667V339.0153333333334zM559.6424166666667 523.3661666666667H436.6862500000001V641.9846666666667H559.6424166666667V523.3661666666667zM744.1600833333334 154.6645000000001H621.2039166666667V277.6206666666667H744.1600833333334V154.6645000000001zM744.1600833333334 339.0153333333334H621.2039166666667V461.9715H744.1600833333334V339.0153333333334zM744.1600833333334 523.3661666666667H621.2039166666667V641.9846666666667H744.1600833333334V523.3661666666667z" />
    <glyph glyph-name="camera"
      unicode="&#xE021;"
      horiz-adv-x="1000.9999999999999" d="M876.0418333333333 761.4373333333333H709.8758333333333C709.8758333333333 807.3165 672.5051666666667 844.6871666666667 626.626 844.6871666666667H375.375C329.4958333333334 844.6871666666667 292.1251666666667 807.3165 292.1251666666667 761.4373333333333H124.9581666666667C79.079 761.4373333333333 41.7083333333333 724.0666666666666 41.7083333333333 678.1875V219.5626666666667C41.7083333333333 173.6835000000001 79.079 136.3128333333335 124.9581666666667 136.3128333333335H876.0418333333333C921.921 136.3128333333335 959.2916666666666 173.6835000000001 959.2916666666666 219.5626666666667V678.3543333333334C960.1258333333332 724.4003333333333 923.0888333333332 761.4373333333333 876.0418333333333 761.4373333333333zM500.3331666666666 219.7295C361.6946666666666 219.7295 249.9163333333333 331.5078333333334 249.9163333333333 470.1463333333332S361.8614999999999 720.3963333333334 500.3331666666666 720.3963333333334S750.5831666666666 608.6179999999999 750.5831666666666 469.9794999999999S638.9716666666666 219.7295 500.3331666666666 219.7295zM500.3331666666666 636.4791666666667C408.5748333333333 636.4791666666667 333.1661666666667 561.9046666666668 333.1661666666667 469.3121666666667C333.1661666666667 377.5538333333334 407.7406666666666 302.1451666666668 500.3331666666666 302.1451666666668C592.0914999999999 302.1451666666668 667.5001666666666 376.5528333333334 667.5001666666666 469.3121666666667C667.8338333333334 561.9046666666668 593.2593333333333 636.4791666666667 500.3331666666666 636.4791666666667" />
    <glyph glyph-name="cart"
      unicode="&#xE022;"
      horiz-adv-x="1000.9999999999999" d="M42.9595833333333 827.0028333333333L42.9595833333333 827.0028333333333H184.2674166666667L398.64825 368.5448333333334H756.1720833333333L901.3170833333334 716.5591666666667C907.9904166666666 731.9078333333332 925.3410833333332 739.5821666666667 941.69075 732.9088333333334C957.0394166666669 726.2355 964.71375 708.8848333333333 958.0404166666666 692.5351666666667L796.54575 307.9843333333335H359.2755833333333L145.89575 766.4423333333334H42.9595833333333V827.0028333333333L42.9595833333333 827.0028333333333zM469.71925 215.5586666666667C469.71925 249.259 442.8590833333333 277.1201666666667 408.15775 277.1201666666667C374.4574166666667 277.1201666666667 346.59625 250.26 346.59625 215.5586666666667C346.59625 181.8583333333334 374.4574166666666 153.9971666666668 408.15775 153.9971666666668C441.8580833333334 154.9981666666666 469.71925 181.8583333333334 469.71925 215.5586666666667M806.2220833333333 215.5586666666667C806.2220833333333 249.259 779.3619166666666 277.1201666666667 744.6605833333333 277.1201666666667C710.9602500000001 277.1201666666667 683.0990833333334 250.26 683.0990833333334 215.5586666666667C683.0990833333334 181.8583333333334 710.9602500000001 153.9971666666668 744.6605833333333 153.9971666666668C778.3609166666666 154.9981666666666 806.2220833333333 181.8583333333334 806.2220833333333 215.5586666666667M372.62225 689.5321666666666C372.62225 664.5071666666668 352.4354166666667 643.3193333333334 326.4094166666667 643.3193333333334C301.3844166666667 643.3193333333334 280.1965833333334 663.5061666666668 280.1965833333334 689.5321666666666C280.1965833333334 714.5571666666667 300.3834166666667 735.745 326.4094166666667 735.745S372.62225 715.3913333333334 372.62225 689.5321666666666M434.18375 567.4101666666667C434.18375 542.3851666666667 413.9969166666667 521.1973333333333 387.9709166666667 521.1973333333333C362.9459166666667 521.1973333333333 341.7580833333334 541.3841666666667 341.7580833333334 567.4101666666666C341.7580833333334 592.4351666666666 361.9449166666667 613.6229999999999 387.9709166666667 613.6229999999999C412.9959166666667 613.623 434.18375 592.4351666666666 434.18375 567.4101666666667M556.30575 567.4101666666667C556.30575 542.3851666666667 536.1189166666666 521.1973333333333 510.0929166666666 521.1973333333333C485.0679166666667 521.1973333333333 463.8800833333333 541.3841666666667 463.8800833333333 567.4101666666666C463.8800833333333 592.4351666666666 484.0669166666667 613.6229999999999 510.0929166666666 613.6229999999999S556.30575 592.4351666666666 556.30575 567.4101666666667M617.86725 689.5321666666666C617.86725 664.5071666666668 597.6804166666667 643.3193333333334 571.6544166666667 643.3193333333334C546.6294166666668 643.3193333333334 525.4415833333334 663.5061666666668 525.4415833333334 689.5321666666666C525.4415833333334 714.5571666666667 545.6284166666668 735.745 571.6544166666667 735.745C596.6794166666666 735.5781666666667 617.86725 715.3913333333334 617.86725 689.5321666666666M617.86725 445.2881666666667C617.86725 420.2631666666666 597.6804166666667 399.0753333333334 571.6544166666667 399.0753333333334C546.6294166666668 399.0753333333334 525.4415833333334 419.2621666666668 525.4415833333334 445.2881666666667C525.4415833333334 470.3131666666667 545.6284166666668 491.501 571.6544166666667 491.501C596.6794166666666 491.5010000000001 617.86725 470.3131666666667 617.86725 445.2881666666667M678.42775 567.4101666666667C678.42775 542.3851666666667 658.2409166666665 521.1973333333333 632.2149166666667 521.1973333333333C607.1899166666666 521.1973333333333 586.0020833333333 541.3841666666667 586.0020833333333 567.4101666666666C586.0020833333333 592.4351666666666 606.1889166666667 613.6229999999999 632.2149166666667 613.6229999999999S678.42775 592.4351666666666 678.42775 567.4101666666667M739.8224166666666 445.2881666666667C739.8224166666666 420.2631666666666 719.6355833333332 399.0753333333334 693.6095833333333 399.0753333333334C668.5845833333333 399.0753333333334 647.39675 419.2621666666668 647.39675 445.2881666666667C647.39675 470.3131666666667 667.5835833333334 491.501 693.6095833333333 491.501C719.6355833333333 491.5010000000001 739.8224166666666 470.3131666666667 739.8224166666666 445.2881666666667M801.3839166666667 567.4101666666667C801.3839166666667 542.3851666666667 781.1970833333334 521.1973333333333 755.1710833333334 521.1973333333333C730.1460833333334 521.1973333333333 708.95825 541.3841666666667 708.95825 567.4101666666666C708.95825 592.4351666666666 729.1450833333334 613.6229999999999 755.1710833333334 613.6229999999999C780.1960833333333 613.623 801.3839166666667 592.4351666666666 801.3839166666667 567.4101666666667M739.8224166666666 689.5321666666666C739.8224166666666 664.5071666666668 719.6355833333332 643.3193333333334 693.6095833333333 643.3193333333334C668.5845833333333 643.3193333333334 647.39675 663.5061666666668 647.39675 689.5321666666666C647.39675 714.5571666666667 667.5835833333334 735.745 693.6095833333333 735.745C719.6355833333333 735.5781666666667 739.8224166666666 715.3913333333334 739.8224166666666 689.5321666666666M861.9444166666666 689.5321666666666C861.9444166666666 664.5071666666668 841.7575833333332 643.3193333333334 815.7315833333333 643.3193333333334C790.7065833333332 643.3193333333334 769.51875 663.5061666666668 769.51875 689.5321666666666C769.51875 714.5571666666667 789.7055833333334 735.745 815.7315833333333 735.745S861.9444166666666 715.3913333333334 861.9444166666666 689.5321666666666M494.74425 689.5321666666666C494.74425 664.5071666666668 474.5574166666666 643.3193333333334 448.5314166666667 643.3193333333334C423.5064166666667 643.3193333333334 402.3185833333334 663.5061666666668 402.3185833333334 689.5321666666666C402.3185833333334 714.5571666666667 422.5054166666667 735.745 448.5314166666667 735.745S494.74425 715.3913333333334 494.74425 689.5321666666666M494.74425 445.2881666666667C494.74425 420.2631666666666 474.5574166666666 399.0753333333334 448.5314166666667 399.0753333333334C423.5064166666667 399.0753333333334 402.3185833333334 419.2621666666668 402.3185833333334 445.2881666666667C402.3185833333334 470.3131666666667 422.5054166666667 491.501 448.5314166666667 491.501S494.74425 470.3131666666667 494.74425 445.2881666666667" />
    <glyph glyph-name="casing"
      unicode="&#xE023;"
      horiz-adv-x="1000.9999999999999" d="M290.6236666666665 235.4118333333335V712.0546666666667C290.6236666666665 742.0846666666666 271.7714999999999 763.4393333333334 242.7424999999999 767.6101666666667V180.0231666666667C271.4378333333332 184.5276666666667 290.6236666666665 206.0491666666667 290.6236666666665 235.4118333333335zM661.8278333333332 949.2916666666666H339.1721666666666C281.9483333333332 949.2916666666666 242.7424999999999 910.0858333333334 242.7424999999999 852.8620000000001V793.6361666666667C285.7854999999999 788.798 314.9813333333333 760.2695 314.9813333333333 720.73V223.2330000000001C314.9813333333333 202.212 306.306 183.3598333333334 290.4568333333333 170.0131666666667C277.9443333333333 159.5026666666668 261.4278333333333 152.6625000000001 242.7425 150.4936666666669V128.3048333333336C242.7425 71.0810000000003 281.9483333333333 31.8751666666669 339.1721666666666 31.8751666666669H660.9936666666666C718.2175 31.8751666666669 758.2574999999999 71.915166666667 758.2574999999999 128.3048333333336V852.8620000000001C758.2574999999998 910.0858333333334 719.0516666666665 949.2916666666666 661.8278333333332 949.2916666666666zM572.2383333333332 859.7021666666667C572.2383333333332 851.861 565.8986666666665 845.5213333333334 558.0574999999999 845.5213333333334H443.1093333333332C435.2681666666666 845.5213333333334 428.9284999999999 851.861 428.9284999999999 859.7021666666667V862.0378333333333C428.9284999999999 869.879 435.2681666666666 876.2186666666666 443.1093333333332 876.2186666666666H558.0574999999999C565.8986666666665 876.2186666666666 572.2383333333332 869.879 572.2383333333332 862.0378333333333V859.7021666666667z" />
    <glyph glyph-name="change"
      unicode="&#xE024;"
      horiz-adv-x="1000.9999999999999" d="M208.1245833333333 491.8346666666667C209.4592499999999 646.4891666666667 335.58525 772.1146666666667 490.5734166666666 772.4483333333334L490.74025 666.5091666666667L702.2849166666666 808.3175L490.2397499999999 949.2916666666666L490.4065833333333 843.3525C295.8789166666667 843.0188333333333 138.38825 686.0286666666666 137.0535833333333 491.8346666666667L208.1245833333333 491.8346666666667zM792.7085833333332 489.1653333333334C791.3739166666666 334.5108333333334 665.2479166666665 208.8853333333334 510.2597499999999 208.5516666666667L510.0929166666665 314.4908333333334L298.5482499999999 172.6825L510.5934166666666 31.7083333333334L510.4265833333333 137.6475C704.9542499999999 137.9811666666667 862.6117499999999 294.9713333333334 863.9464166666666 489.3321666666667L792.7085833333332 489.1653333333334z" />
    <glyph glyph-name="chart"
      unicode="&#xE025;"
      horiz-adv-x="1000.9999999999999" d="M41.7083333333333 823.9998333333333L41.7083333333333 323.1661666666667L292.1251666666667 573.7498333333333L542.5419999999999 323.1661666666667L959.2916666666666 740.9168333333333L959.2916666666666 823.9998333333333zM292.1251666666667 490.5000000000001L41.7083333333333 240.0831666666667L41.7083333333333 157.0001666666668L959.2916666666666 157.0001666666668L959.2916666666666 657.8338333333334L542.5419999999999 240.0831666666667z" />
    <glyph glyph-name="chat-fill"
      unicode="&#xE026;"
      horiz-adv-x="1000.9999999999999" d="M821.6541666666666 219.3958333333334H638.1374999999999L362.8625 -9.9999999999999V219.3958333333334H179.3458333333333C92.2588333333333 219.3958333333334 41.7083333333333 265.2750000000001 41.7083333333333 357.0333333333334V769.9458333333333C41.7083333333333 861.7041666666667 92.2588333333333 907.5833333333334 179.3458333333333 907.5833333333334H821.6541666666666C908.908 907.5833333333334 959.2916666666666 861.7041666666667 959.2916666666666 769.9458333333333V357.0333333333334C959.2916666666666 265.2750000000001 908.908 219.3958333333334 821.6541666666666 219.3958333333334z" />
    <glyph glyph-name="chat"
      unicode="&#xE027;"
      horiz-adv-x="1000.9999999999999" d="M355.2715833333334 63.5735000000001V261.1041666666668H187.1035833333334C107.0235833333334 261.1041666666668 41.79175 326.3360000000002 41.79175 406.4160000000001V772.1146666666667C41.79175 852.1946666666668 107.0235833333334 917.4265 187.1035833333334 917.4265H813.8964166666666C893.9764166666666 917.4265 959.20825 852.1946666666668 959.20825 772.1146666666667V406.5828333333335C959.20825 326.3360000000002 893.9764166666666 261.1041666666669 813.8964166666666 261.1041666666669H618.7014166666667L355.2715833333334 63.5735000000001zM187.1035833333334 835.6781666666667C152.0685833333334 835.6781666666667 123.5400833333334 807.1496666666667 123.5400833333334 772.1146666666667V406.5828333333335C123.5400833333334 371.5478333333334 152.0685833333334 343.0193333333334 187.1035833333334 343.0193333333334H437.0199166666666V227.2370000000001L591.34075 343.0193333333334H813.8964166666666C848.9314166666666 343.0193333333334 877.4599166666666 371.5478333333334 877.4599166666666 406.5828333333335V772.1146666666667C877.4599166666666 807.1496666666667 848.9314166666666 835.6781666666667 813.8964166666666 835.6781666666667H187.1035833333334z" />
    <glyph glyph-name="check-grey"
      unicode="&#xE028;"
      horiz-adv-x="1000.9999999999999" d="M959.2916666666666 755.9318333333333L854.5203333333334 847.5233333333333L402.9024999999999 331.8415L133.2998333333334 567.7438333333334L41.7083333333333 462.9725000000001L315.6486666666666 223.3998333333334L416.0823333333334 133.4766666666667z" />
    <glyph glyph-name="check-white"
      unicode="&#xE029;"
      horiz-adv-x="1000.9999999999999" d="M959.2916666666666 755.9318333333333L854.5203333333334 847.5233333333333L402.9024999999999 331.8415L133.2998333333334 567.7438333333334L41.7083333333333 462.9725000000001L315.6486666666666 223.3998333333334L416.0823333333334 133.4766666666667z" />
    <glyph glyph-name="check"
      unicode="&#xE02A;"
      horiz-adv-x="1000.9999999999999" d="M409.1587500000002 177.8543333333335C407.3235833333335 175.1850000000001 406.3225833333335 172.1820000000001 403.9869166666669 169.8463333333334C393.3095833333334 158.8353333333333 379.2955833333335 153.6635000000001 365.4484166666669 153.9971666666668C351.6012500000002 153.6635000000001 337.5872500000002 158.6685000000001 326.9099166666669 169.8463333333334C324.5742500000002 172.182 323.5732500000002 175.1850000000001 321.7380833333335 177.8543333333335L57.1404166666667 452.9625000000001C36.6199166666667 474.3171666666667 36.6199166666667 509.0185000000001 57.1404166666667 530.3731666666666C77.6609166666667 551.7278333333334 111.0275833333334 551.7278333333334 131.7149166666668 530.3731666666666L365.6152500000001 287.2970000000001L869.2850833333332 810.82C889.8055833333331 832.1746666666667 923.1722499999998 832.1746666666667 943.8595833333331 810.82C964.3800833333332 789.4653333333333 964.3800833333332 754.764 943.8595833333331 733.4093333333333L409.1587500000002 177.8543333333335z" />
    <glyph glyph-name="check_list"
      unicode="&#xE02B;"
      horiz-adv-x="1000.9999999999999" d="M81.5815 949.2916666666666L919.4185 949.2916666666666L578.7448333333332 372.2151666666668L578.7448333333332 31.7083333333334L420.7536666666666 147.4906666666667L420.7536666666666 372.2151666666668z" />
    <glyph glyph-name="checkbox-part-selected"
      unicode="&#xE02C;"
      horiz-adv-x="1000.9999999999999" d="" />
    <glyph glyph-name="clear"
      unicode="&#xE02D;"
      horiz-adv-x="1000.9999999999999" d="M500.4999999999998 31.7083333333334C247.0801666666667 31.7083333333334 41.7083333333333 237.0801666666668 41.7083333333333 490.5000000000001S247.0801666666667 949.2916666666666 500.4999999999998 949.2916666666666S959.2916666666666 743.9198333333334 959.2916666666666 490.5000000000001S753.9198333333333 31.7083333333334 500.4999999999998 31.7083333333334zM500.4999999999998 891.9010000000001C278.7785 891.9010000000001 99.099 712.2215000000001 99.099 490.5000000000001S278.7785 89.0990000000001 500.4999999999998 89.0990000000001S901.901 268.7785000000001 901.901 490.5000000000001S722.2214999999999 891.9010000000001 500.4999999999998 891.9010000000001zM693.0256666666666 297.9743333333335C682.0146666666666 286.9633333333334 664.3303333333332 286.9633333333334 653.4861666666666 297.9743333333335L500.4999999999998 450.9605L347.5138333333333 297.9743333333335C336.5028333333334 286.9633333333334 318.8185000000001 286.9633333333334 307.9743333333334 297.9743333333335C296.9633333333334 308.9853333333334 296.9633333333334 326.6696666666668 307.9743333333334 337.5138333333334L460.9605 490.5000000000001L307.9743333333334 643.4861666666667C296.9633333333334 654.4971666666667 296.9633333333334 672.1814999999999 307.9743333333334 683.0256666666667C318.9853333333334 694.0366666666666 336.6696666666667 694.0366666666666 347.5138333333333 683.0256666666667L500.4999999999998 530.0395000000001L653.4861666666666 683.0256666666667C664.4971666666667 694.0366666666666 682.1814999999999 694.0366666666666 693.0256666666666 683.0256666666667C704.0366666666666 672.0146666666667 704.0366666666666 654.3303333333333 693.0256666666666 643.4861666666667L540.0395 490.5000000000001L693.0256666666666 337.5138333333334C704.0366666666666 326.6696666666668 704.0366666666666 308.8185000000001 693.0256666666666 297.9743333333335z" />
    <glyph glyph-name="clip"
      unicode="&#xE02E;"
      horiz-adv-x="1000.9999999999999" d="M696.6959999999999 779.4553333333333L696.6959999999999 239.9163333333335C696.6959999999999 173.6835000000001 673.5061666666666 122.7993333333334 638.6379999999999 87.9311666666669C601.4341666666667 50.7273333333334 550.8836666666666 31.7083333333334 500.4999999999998 31.7083333333334C402.9024999999999 31.7083333333334 304.3039999999999 103.2798333333334 304.3039999999999 239.9163333333335C304.3039999999999 319.9963333333334 304.3039999999999 640.9836666666667 304.3039999999999 801.1436666666666C304.3039999999999 858.0338333333333 329.4958333333334 905.2476666666666 373.373 930.6063333333332C416.5828333333334 955.4645 472.3051666666667 955.4645 515.3481666666664 930.6063333333332C559.2253333333333 905.2476666666666 584.5839999999998 858.0338333333333 584.5839999999998 801.1436666666666L584.5839999999998 264.4408333333334C584.5839999999998 233.7435000000001 576.4091666666666 207.3838333333334 560.7268333333332 188.1980000000001C545.3781666666666 169.1790000000001 523.3561666666665 158.3348333333335 500.3331666666666 158.3348333333335C458.6248333333331 158.3348333333335 416.2491666666666 194.7045000000002 416.416 264.1071666666668L416.416 649.4921666666667C415.7486666666666 649.6590000000001 432.0983333333332 649.6590000000001 447.447 649.6590000000001S472.4719999999999 649.4921666666667 472.4719999999999 649.4921666666667L472.4719999999999 264.1071666666668C472.4719999999999 231.5746666666668 486.4859999999998 214.3908333333334 500.3331666666666 214.3908333333334C506.3391666666665 214.3908333333334 512.3451666666665 217.5606666666666 517.1833333333332 223.5666666666667C524.5239999999999 232.5756666666668 528.528 247.0901666666668 528.528 264.6076666666668L528.528 801.3105C528.528 838.1806666666666 513.8466666666666 866.876 487.487 882.2246666666667C461.2941666666666 897.2396666666667 427.5938333333334 897.2396666666667 401.5678333333333 882.2246666666667C375.0413333333333 866.876 360.5268333333333 838.1806666666666 360.36 801.3105C360.36 641.1505 360.36 320.1631666666667 360.36 240.0831666666668C360.36 135.4786666666668 433.0993333333334 87.9311666666669 500.4999999999998 87.9311666666669S640.6399999999999 135.4786666666668 640.6399999999999 240.0831666666668L640.6399999999999 779.6221666666667" />
    <glyph glyph-name="close-cross"
      unicode="&#xE02F;"
      horiz-adv-x="1000.9999999999999" d="M959.2916666666666 903.7461666666666L913.7461666666666 949.2916666666666L500.4999999999998 536.0455000000001L87.2538333333333 949.2916666666666L41.7083333333333 903.7461666666666L454.9544999999998 490.5000000000001L41.7083333333333 77.2538333333333L87.2538333333333 31.7083333333334L500.4999999999998 444.9545000000001L913.7461666666666 31.7083333333334L959.2916666666666 77.2538333333333L546.0455 490.5000000000001z" />
    <glyph glyph-name="close-expand"
      unicode="&#xE030;"
      horiz-adv-x="1000.9999999999999" d="M176.0925833333333 166.0091666666667C-3.0864166666667 345.1881666666667 -3.0864166666667 635.645 176.0925833333333 814.824C355.2715833333333 994.003 645.7284166666666 994.003 824.9074166666666 814.824S1004.0864166666664 345.1881666666667 824.9074166666666 166.0091666666667C645.8952499999999 -13.1698333333333 355.2715833333333 -13.0029999999998 176.0925833333333 166.0091666666667zM743.8264166666665 733.743C609.5255833333332 868.0438333333334 391.64125 868.0438333333334 257.1735833333334 733.743S122.8727500000001 381.5578333333334 257.1735833333334 247.0901666666668S609.35875 112.7893333333334 743.8264166666665 247.0901666666668S878.2940833333332 599.4421666666667 743.8264166666665 733.743zM370.7870833333333 295.8055000000001L305.8889166666667 360.7036666666667L435.6852499999999 490.5000000000001L305.8889166666666 620.2963333333335L370.7870833333333 685.1945000000001L500.5834166666665 555.3981666666667L630.3797499999998 685.1945000000001L695.2779166666664 620.2963333333335L565.4815833333332 490.5000000000001L695.2779166666666 360.7036666666667L630.37975 295.8055000000001L500.5834166666665 425.6018333333334L370.7870833333333 295.8055000000001z" />
    <glyph glyph-name="close-menu"
      unicode="&#xE031;"
      horiz-adv-x="1000.9999999999999" d="M121.5380833333334 604.7808333333334C87.5040833333334 570.7468333333334 67.9845833333334 551.2273333333333 52.9695833333334 536.2123333333334C23.27325 506.516 22.27225 475.485 52.9695833333334 444.7876666666666C68.9855833333334 428.7716666666667 87.33725 410.42 121.5380833333334 376.2191666666667C155.5720833333334 342.1851666666667 186.2694166666667 339.1821666666666 186.2694166666667 376.0523333333332C186.2694166666667 425.435 186.2694166666667 539.7158333333332 186.2694166666667 585.7618333333332C186.2694166666667 642.9856666666667 155.5720833333334 638.8148333333334 121.5380833333334 604.7808333333334zM395.8120833333334 737.9138333333334H890.806583333333C921.337083333333 737.9138333333334 948.0304166666664 764.6071666666667 948.0304166666664 795.1376666666667S921.337083333333 852.3615 890.806583333333 852.3615H395.8120833333334C365.2815833333334 852.3615 338.58825 825.6681666666667 338.58825 795.1376666666667S365.2815833333334 738.0806666666667 395.8120833333334 737.9138333333334zM890.4729166666666 547.557H395.6452500000001C365.11475 547.557 338.4214166666667 520.8636666666666 338.4214166666667 490.3331666666667S365.11475 433.1093333333333 395.6452500000001 433.1093333333333H890.63975C921.1702499999998 433.1093333333333 947.8635833333332 459.8026666666666 947.8635833333332 490.3331666666667S925.0074166666664 547.557 890.4729166666666 547.557zM890.4729166666666 243.0861666666667H395.6452500000001C365.11475 243.0861666666667 338.4214166666667 216.3928333333333 338.4214166666667 185.8623333333334S365.11475 128.6385000000001 395.6452500000001 128.6385000000001H890.63975C921.1702499999998 128.6385000000001 947.8635833333332 155.3318333333334 947.8635833333332 185.8623333333335S925.0074166666664 242.9193333333334 890.4729166666666 243.0861666666667z" />
    <glyph glyph-name="close-right-panel"
      unicode="&#xE032;"
      horiz-adv-x="1000.9999999999999" d="M806.4723333333333 358.3680000000001C806.4723333333333 382.2251666666667 806.4723333333333 582.7588333333333 806.4723333333333 622.2983333333334S793.2924999999999 674.8508333333334 753.9198333333333 674.8508333333334C714.2134999999998 674.8508333333334 437.437 674.8508333333334 437.437 674.8508333333334V886.0618333333333L41.7083333333333 490.5000000000001L437.2701666666667 94.9381666666667V306.1491666666667C437.2701666666667 306.1491666666667 629.7958333333333 306.1491666666667 753.7529999999999 305.8155000000001C795.6281666666666 305.8155000000001 806.4723333333333 321.6646666666667 806.4723333333333 358.3680000000001zM933.5993333333334 774.9508333333333C914.4135 797.807 885.0508333333332 809.4853333333333 846.1786666666667 809.4853333333333H669.3353333333333C660.8268333333333 809.4853333333333 653.9866666666667 802.6451666666667 653.9866666666667 794.1366666666667C653.9866666666667 785.6281666666666 660.8268333333334 778.788 669.3353333333333 778.788H846.1786666666667C902.4015 778.788 928.5943333333335 750.0926666666667 928.5943333333335 688.5311666666666V292.9693333333335C928.5943333333335 232.2420000000001 901.5673333333332 202.7125000000001 846.1786666666667 202.7125000000001H669.3353333333333C660.8268333333333 202.7125000000001 653.9866666666667 195.8723333333334 653.9866666666667 187.3638333333335S660.8268333333334 172.0151666666668 669.3353333333333 172.0151666666668H846.1786666666667C884.5503333333334 172.0151666666668 914.0798333333335 184.0271666666668 933.5993333333334 207.5506666666668C950.6163333333334 228.2380000000001 959.2916666666666 256.9333333333335 959.2916666666666 292.8025000000001V688.6980000000001C959.2916666666666 725.5681666666667 950.6163333333332 754.5971666666667 933.5993333333334 774.9508333333333z" />
    <glyph glyph-name="close"
      unicode="&#xE033;"
      horiz-adv-x="1000.9999999999999" d="M500.4999999999998 900.0758333333333C726.3923333333332 900.0758333333333 910.0758333333334 716.3923333333333 910.0758333333334 490.5000000000001C910.0758333333334 264.6076666666668 726.3923333333332 80.9241666666667 500.4999999999998 80.9241666666667C274.6076666666667 80.9241666666667 90.9241666666667 264.6076666666668 90.9241666666667 490.5000000000001C90.9241666666667 716.3923333333333 274.6076666666667 900.0758333333333 500.4999999999998 900.0758333333333M500.4999999999998 949.2916666666666C247.0801666666667 949.2916666666666 41.7083333333333 743.9198333333334 41.7083333333333 490.5000000000001S247.0801666666667 31.7083333333334 500.4999999999998 31.7083333333334C753.9198333333333 31.7083333333334 959.2916666666666 237.0801666666668 959.2916666666666 490.5000000000001S753.7529999999999 949.2916666666666 500.4999999999998 949.2916666666666L500.4999999999998 949.2916666666666zM650.3163333333333 453.6298333333333C658.1574999999999 447.6238333333333 627.9606666666667 387.2301666666666 621.4541666666667 393.0693333333334L500.1663333333332 503.8466666666667L378.8785000000001 393.0693333333334C372.372 387.0633333333334 342.1751666666667 446.7896666666667 350.6836666666666 453.6298333333334L500.1663333333332 588.2643333333334L650.3163333333333 453.6298333333333z" />
    <glyph glyph-name="cloud"
      unicode="&#xE034;"
      horiz-adv-x="1000.9999999999999" d="M859.8589999999999 481.4910000000001C859.8589999999999 484.3271666666667 860.8599999999999 487.1633333333334 860.8599999999999 490.1663333333334C860.8599999999999 580.9236666666668 787.2864999999999 654.4971666666668 696.5291666666666 654.4971666666668C670.67 654.4971666666668 646.8128333333333 647.8238333333334 624.7908333333332 637.3133333333333C602.7688333333333 722.3983333333333 526.3591666666666 785.4613333333333 434.6008333333333 785.4613333333333C325.6586666666667 785.4613333333333 237.7375 697.5401666666667 237.7375 588.5980000000001C237.7375 565.575 241.5746666666667 543.7198333333334 249.249 522.6988333333334H205.205C114.4476666666667 522.6988333333334 41.7083333333333 450.1263333333334 41.7083333333333 359.2021666666667S115.2818333333333 195.7055 205.205 195.7055H812.1446666666666C893.3924999999999 195.7055 959.2916666666666 261.6046666666668 959.2916666666666 342.8525000000001C959.2916666666666 406.9165000000001 917.2496666666664 461.3041666666667 859.8589999999999 481.4910000000001" />
    <glyph glyph-name="coins"
      unicode="&#xE035;"
      horiz-adv-x="1000.9999999999999" d="M395.3115833333334 473.8166666666667C399.4824166666667 473.8166666666667 403.65325 473.9835 407.9909166666667 473.9835C428.1777500000001 509.5190000000001 454.8710833333334 540.7168333333334 486.5694166666667 565.9086666666667C457.5404166666668 561.9046666666668 427.0099166666668 559.7358333333334 395.3115833333334 559.7358333333334C242.9927500000001 559.7358333333334 115.0315833333334 606.616 56.6399166666668 675.5181666666667C53.1364166666668 665.8418333333334 51.1344166666668 655.9986666666667 51.1344166666668 645.655C51.30125 550.8936666666666 205.2884166666667 473.8166666666667 395.3115833333334 473.8166666666667zM686.1020833333332 634.4771666666668C703.7864166666666 634.3103333333333 720.9702499999999 632.642 737.8204166666666 629.8058333333333C738.8214166666666 635.1445 739.3219166666665 640.4831666666666 739.3219166666665 645.8218333333334C739.3219166666665 655.9986666666666 737.1530833333331 666.0086666666666 733.8164166666664 675.685C721.3039166666666 660.6700000000001 705.1210833333332 646.9896666666667 686.1020833333332 634.4771666666668zM395.3115833333334 605.1145C585.3347499999999 605.1145 739.48875 682.1914999999999 739.48875 777.1196666666667S585.3347499999999 949.2916666666666 395.3115833333334 949.2916666666666C205.2884166666667 949.2916666666666 51.30125 872.2146666666666 51.30125 777.2865S205.2884166666667 605.1145 395.3115833333334 605.1145zM367.2835833333334 326.5028333333334C367.9509166666667 356.1991666666667 372.7890833333334 384.8945 381.13075 411.9215000000001C235.1515833333334 414.7576666666667 113.36325 460.8036666666667 56.80675 527.537C53.30325 517.8606666666667 51.30125 508.0175 51.30125 497.6738333333334C51.30125 407.5838333333334 190.4402499999999 333.6766666666668 367.2835833333334 326.5028333333334zM395.3115833333334 179.6895000000001C396.6462500000001 179.6895000000001 397.8140833333334 179.6895000000001 399.1487500000001 179.6895000000001C385.9689166666667 206.7165 376.4594166666668 235.9123333333333 371.2875833333334 266.4428333333334C229.6460833333334 271.1141666666668 111.8617500000001 316.326 56.6399166666668 381.3910000000001C53.1364166666668 371.7146666666668 51.1344166666668 361.8715000000001 51.1344166666668 351.5278333333335C51.30125 256.7665000000001 205.2884166666667 179.6895000000001 395.3115833333334 179.6895000000001zM477.0599166666665 79.0890000000001C476.5594166666666 79.5894999999999 476.0589166666666 79.9231666666667 475.5584166666667 80.4236666666666C461.8780833333334 92.2688333333333 449.19875 105.2818333333332 437.6872500000001 119.2958333333332C423.8400833333334 118.4616666666666 409.8260833333334 117.6274999999998 395.3115833333334 117.6274999999998C242.9927500000001 117.6274999999998 115.0315833333334 164.5076666666665 56.6399166666667 233.4098333333332C53.1364166666667 223.7334999999998 51.1344166666667 213.8903333333332 51.1344166666667 203.5466666666665C51.30125 108.7853333333335 205.2884166666667 31.7083333333334 395.3115833333334 31.7083333333334C441.5244166666668 31.7083333333334 485.5684166666667 36.3796666666667 525.7752499999999 44.5545000000002C509.4255833333333 54.0640000000002 493.9100833333334 64.9081666666668 479.5624166666666 76.9201666666668C478.7282499999999 77.7543333333334 477.8940833333332 78.4216666666667 477.0599166666665 79.0890000000001zM415.9989166666667 318.6616666666668C415.9989166666667 171.2384574451669 535.5090407785001 51.7283333333334 682.93225 51.7283333333334C830.3554592214997 51.7283333333334 949.8655833333332 171.2384574451669 949.8655833333332 318.6616666666668C949.8655833333332 466.0848758881665 830.3554592214997 585.595 682.93225 585.595C535.5090407785001 585.595 415.9989166666667 466.0848758881665 415.9989166666667 318.6616666666668z" />
    <glyph glyph-name="collapse"
      unicode="&#xE036;"
      horiz-adv-x="1000.9999999999999" d="M60.3936666666667 151.9951666666667L161.6615 50.7273333333334C187.5206666666667 25.0350000000001 197.5306666666667 25.7023333333334 222.5556666666667 50.7273333333334L352.0183333333334 180.0231666666667L473.8066666666667 58.2348333333333V463.8066666666667H67.9011666666667L189.8563333333334 342.1851666666668L60.3936666666667 212.8893333333334C35.7023333333334 188.1980000000001 34.8681666666667 177.3538333333335 60.3936666666667 151.9951666666667zM940.4394999999998 829.0048333333334L839.1716666666665 930.2726666666669C813.4793333333332 956.1318333333334 803.3024999999999 955.4645 778.2774999999999 930.2726666666669L648.8148333333332 800.9768333333334L527.0264999999999 922.7651666666666V517.1933333333334H932.932L811.3104999999999 638.8148333333334L940.6063333333332 768.1106666666667C964.9639999999998 792.6351666666667 965.6313333333331 803.6461666666667 940.4394999999998 829.0048333333334z" />
    <glyph glyph-name="controller"
      unicode="&#xE037;"
      horiz-adv-x="1000.9999999999999" d="M307.55725 617.9606666666666H292.0417500000001C289.7060833333333 617.9606666666666 287.7040833333334 619.7958333333333 287.7040833333334 622.2983333333334V637.9806666666666C287.7040833333334 655.8318333333334 273.0227500000001 670.6800000000001 255.0047500000001 670.6800000000001L255.0047500000001 670.6800000000001C237.1535833333334 670.6800000000001 222.3054166666668 655.9986666666666 222.3054166666668 637.9806666666666V622.2983333333334C222.3054166666668 619.9626666666667 220.47025 617.9606666666666 217.96775 617.9606666666666H202.2854166666667C184.4342500000001 617.9606666666666 169.5860833333334 603.2793333333334 169.5860833333334 585.2613333333334L169.5860833333334 585.2613333333334C169.5860833333334 567.4101666666666 184.2674166666666 552.562 202.2854166666667 552.562H217.96775C220.3034166666666 552.562 222.3054166666667 550.7268333333334 222.3054166666667 548.2243333333333V532.542C222.3054166666667 514.6908333333333 236.9867500000001 499.8426666666667 255.00475 499.8426666666667L255.00475 499.8426666666667C272.8559166666667 499.8426666666667 287.7040833333334 514.524 287.7040833333334 532.542V548.2243333333333C287.7040833333334 550.56 289.5392500000001 552.562 292.0417500000001 552.562H307.7240833333334C325.5752500000001 552.562 340.4234166666667 567.2433333333333 340.4234166666667 585.2613333333334L340.4234166666667 585.2613333333334C340.2565833333333 603.2793333333334 325.7420833333333 617.9606666666666 307.55725 617.9606666666666zM694.94425 617.627C674.2569166666667 619.629 657.2399166666667 602.6120000000001 659.2419166666666 581.9246666666668C660.7434166666667 566.7428333333334 673.0890833333333 554.3971666666666 688.2709166666667 552.8956666666667C708.95825 550.8936666666666 725.97525 567.9106666666667 723.97325 588.5980000000001C722.6385833333334 603.7798333333333 710.2929166666667 615.9586666666667 694.94425 617.627zM811.56075 617.627C790.8734166666667 619.629 773.8564166666666 602.6120000000001 775.8584166666667 581.9246666666668C777.3599166666667 566.7428333333334 789.7055833333334 554.3971666666666 804.8874166666667 552.8956666666667C825.57475 550.8936666666666 842.59175 567.9106666666667 840.58975 588.5980000000001C839.2550833333333 603.7798333333333 827.0762500000001 615.9586666666667 811.56075 617.627zM753.3359166666667 559.2353333333333C732.6485833333335 561.2373333333333 715.6315833333333 544.2203333333334 717.6335833333334 523.5329999999999C719.1350833333333 508.3511666666667 731.4807500000001 496.0055 746.6625833333334 494.504C767.3499166666667 492.502 784.3669166666667 509.519 782.3649166666667 530.2063333333333C780.8634166666667 545.5550000000001 768.6845833333333 557.7338333333335 753.3359166666667 559.2353333333333zM746.8294166666667 611.1205C767.51675 609.1185 784.53375 626.1355000000001 782.53175 646.8228333333334C781.03025 662.0046666666667 768.6845833333333 674.3503333333333 753.50275 675.8518333333334C732.8154166666667 677.8538333333333 715.7984166666666 660.8368333333333 717.8004166666667 640.1495C719.1350833333333 624.8008333333333 731.4807500000001 612.6220000000001 746.8294166666667 611.1205zM940.5229166666666 596.2723333333333L940.3560833333333 595.9386666666667C935.5179166666666 697.707 851.4339166666666 778.6211666666667 748.6645833333332 778.6211666666667C696.2789166666666 778.6211666666667 648.89825 757.767 614.1969166666665 723.733H575.1579166666667H425.67525H386.63625C351.9349166666667 757.767 304.55425 778.6211666666667 252.1685833333334 778.6211666666667C149.2324166666667 778.6211666666667 65.31525 697.707 60.4770833333334 595.9386666666667L60.3102500000001 596.2723333333333C60.3102500000001 596.2723333333333 41.6249166666667 332.1751666666669 41.6249166666667 326.3360000000002C41.6249166666667 258.1011666666668 97.1804166666667 202.5456666666667 165.4152500000001 202.5456666666667C202.4522500000001 202.5456666666667 235.6520833333334 218.7285000000001 258.3414166666667 244.5876666666668L258.3414166666667 244.5876666666668L258.3414166666667 244.5876666666668C264.51425 251.5946666666667 337.2535833333333 357.7006666666666 337.2535833333333 357.7006666666666C351.6012500000001 346.8565 369.9529166666668 340.8505 389.63925 342.5188333333334C426.8430833333333 345.355 457.2067500000001 375.0513333333335 460.7102499999999 412.4220000000002C461.7112500000001 423.5998333333333 460.3765833333333 434.1103333333334 457.3735833333332 443.7866666666668H543.6264166666666C540.4565833333334 433.9435000000001 539.1219166666667 423.4330000000001 540.28975 412.4220000000002C543.7932500000001 375.2181666666667 574.1569166666668 345.355 611.36075 342.5188333333334C631.0470833333334 341.0173333333334 649.3987500000001 346.8565 663.7464166666666 357.7006666666666C663.7464166666666 357.7006666666666 736.6525833333334 251.5946666666667 742.6585833333334 244.5876666666668L742.6585833333334 244.5876666666668L742.6585833333334 244.5876666666668C765.3479166666667 218.8953333333335 798.54775 202.5456666666667 835.58475 202.5456666666667C903.8195833333334 202.5456666666667 959.3750833333332 258.1011666666668 959.3750833333332 326.3360000000002C959.20825 332.0083333333334 940.5229166666666 596.2723333333333 940.5229166666666 596.2723333333333zM252.1685833333334 451.4610000000001C177.4272500000001 451.4610000000001 117.0335833333334 511.8546666666667 117.0335833333334 586.596S177.4272500000001 721.731 252.1685833333334 721.731S387.3035833333334 661.3373333333334 387.3035833333334 586.596S326.7430833333334 451.4610000000001 252.1685833333334 451.4610000000001zM419.1687500000001 397.2401666666667C418.6682500000001 396.7396666666666 418.5014166666666 396.0723333333333 418.0009166666667 395.5718333333334C416.3325833333334 393.0693333333334 414.1637500000001 390.7336666666667 411.8280833333333 388.5648333333334C411.3275833333334 388.0643333333334 410.8270833333334 387.7306666666667 410.3265833333334 387.2301666666667C409.65925 386.7296666666666 408.8250833333333 386.0623333333333 407.9909166666667 385.5618333333334C407.15675 385.0613333333333 406.3225833333333 384.2271666666667 405.3215833333333 383.8935000000002C404.15375 383.2261666666667 402.9859166666667 382.5588333333334 401.8180833333334 381.8915C399.9829166666667 381.0573333333333 398.1477500000001 380.39 396.14575 379.5558333333334C394.8110833333334 379.0553333333334 393.4764166666667 378.8885 392.14175 378.5548333333334C389.4724166666666 378.0543333333334 386.63625 377.7206666666667 383.8000833333333 377.7206666666667C382.63225 377.7206666666667 381.4644166666667 377.7206666666667 380.4634166666667 377.8875000000001C380.2965833333334 377.8875000000001 379.9629166666666 377.8875000000001 379.9629166666666 377.8875000000001C378.9619166666667 378.0543333333334 377.7940833333334 378.2211666666667 376.7930833333334 378.3880000000001C376.6262500000001 378.3880000000001 376.4594166666667 378.3880000000001 376.2925833333333 378.5548333333334C375.2915833333334 378.7216666666667 374.1237500000001 379.0553333333335 373.12275 379.2221666666667C373.12275 379.2221666666667 373.12275 379.2221666666667 372.9559166666666 379.2221666666667C371.7880833333333 379.5558333333334 370.7870833333334 379.7226666666668 369.7860833333334 380.2231666666667H369.61925C368.6182500000001 380.7236666666668 367.4504166666667 381.0573333333333 366.4494166666667 381.5578333333334C366.4494166666667 381.5578333333334 366.2825833333333 381.5578333333334 366.2825833333333 381.7246666666668C350.9339166666668 388.5648333333334 340.4234166666667 404.7476666666668 341.9249166666667 423.0993333333335C343.59325 444.1203333333334 361.1107500000001 460.9705 382.13175 461.6378333333333C396.9799166666667 462.1383333333333 410.1597500000001 454.9645 418.0009166666667 443.7866666666668L418.0009166666667 443.7866666666668C419.1687500000001 442.1183333333334 420.3365833333334 440.4500000000001 421.1707500000001 438.4480000000001L421.1707500000001 438.4480000000001C421.6712500000001 437.6138333333334 422.0049166666667 436.6128333333336 422.5054166666667 435.6118333333334V435.4450000000001C423.0059166666666 434.6108333333334 423.17275 433.6098333333335 423.5064166666666 432.7756666666668V432.6088333333335C423.8400833333334 431.6078333333335 424.0069166666667 430.7736666666669 424.3405833333333 429.7726666666668C424.3405833333333 429.6058333333335 424.5074166666667 429.4390000000002 424.5074166666667 429.2721666666669C424.6742499999999 428.4380000000001 425.0079166666667 427.4370000000002 425.0079166666667 426.6028333333335V426.4360000000001C425.17475 425.4350000000002 425.3415833333334 424.6008333333334 425.3415833333334 423.5998333333336C425.3415833333334 423.2661666666668 425.3415833333334 423.0993333333335 425.3415833333334 422.9325000000001C425.3415833333334 421.9315000000002 425.5084166666666 420.9305000000002 425.5084166666666 419.9295000000001L425.5084166666666 419.9295000000001C425.5084166666666 411.2541666666667 423.17275 403.5798333333334 419.1687500000001 397.2401666666667zM634.3837500000001 381.3910000000001C634.3837500000001 381.3910000000001 634.2169166666666 381.3910000000001 634.3837500000001 381.3910000000001C633.2159166666668 380.8905 632.2149166666667 380.39 631.0470833333334 379.8895H630.88025C629.8792500000001 379.389 628.7114166666667 379.2221666666667 627.7104166666667 378.8885C627.7104166666667 378.8885 627.7104166666667 378.8885 627.5435833333335 378.8885C626.5425833333334 378.5548333333334 625.37475 378.3879999999999 624.3737500000001 378.2211666666667C624.2069166666668 378.2211666666667 624.0400833333334 378.2211666666667 623.87325 378.0543333333334C622.87225 377.8875000000001 621.7044166666667 377.7206666666667 620.7034166666667 377.5538333333333C620.5365833333334 377.5538333333333 620.2029166666666 377.5538333333333 620.2029166666666 377.5538333333333C619.0350833333334 377.3870000000001 618.0340833333333 377.3870000000001 616.8662499999999 377.3870000000001C614.0300833333334 377.3870000000001 611.1939166666666 377.7206666666667 608.5245833333332 378.2211666666667C607.0230833333333 378.5548333333334 605.85525 378.7216666666667 604.5205833333333 379.2221666666667C602.5185833333334 379.7226666666668 600.6834166666666 380.7236666666667 598.84825 381.5578333333334C597.5135833333333 382.0583333333334 596.5125833333333 382.8925000000001 595.34475 383.5598333333334C594.5105833333333 384.0603333333334 593.5095833333332 384.7276666666667 592.6754166666666 385.2281666666667C592.0080833333333 385.7286666666667 591.1739166666666 386.396 590.33975 386.8965C589.83925 387.3970000000001 589.3387499999999 387.7306666666667 588.83825 388.2311666666667C586.5025833333333 390.4000000000001 584.5005833333333 392.5688333333333 582.6654166666666 395.2381666666667C582.1649166666667 395.7386666666667 581.83125 396.406 581.4975833333334 396.9065000000001C577.3267500000001 403.2461666666667 575.1579166666667 410.9205 575.1579166666667 419.2621666666667L575.1579166666667 419.2621666666667C575.1579166666667 420.2631666666666 575.1579166666667 421.2641666666667 575.32475 422.2651666666667C575.32475 422.5988333333334 575.32475 422.7656666666667 575.32475 422.9325C575.4915833333333 423.9335000000001 575.4915833333333 424.9345000000002 575.6584166666667 425.7686666666667V425.9355C575.8252499999999 426.9365 575.9920833333333 427.7706666666668 576.1589166666666 428.6048333333333C576.1589166666666 428.7716666666667 576.1589166666666 428.9385 576.32575 429.1053333333333C576.6594166666666 430.1063333333333 576.82625 430.9405 577.1599166666667 431.9415V432.1083333333334C577.4935833333333 433.1093333333333 577.8272499999999 433.9435 578.1609166666666 434.7776666666666V434.9445C578.6614166666667 435.9454999999999 578.9950833333332 436.7796666666667 579.4955833333333 437.7806666666667L579.4955833333333 437.7806666666667C580.4965833333333 439.6158333333333 581.4975833333333 441.4509999999999 582.6654166666666 443.1193333333332L582.6654166666666 443.1193333333332C590.5065833333333 454.2971666666666 603.6864166666667 461.4709999999999 618.5345833333333 460.9705C639.5555833333333 460.3031666666666 657.2399166666667 443.453 658.7414166666666 422.4319999999999C660.2429166666667 404.5808333333333 649.89925 388.3979999999999 634.3837500000001 381.3910000000001zM748.6645833333333 451.4610000000001C673.92325 451.4610000000001 613.5295833333333 511.8546666666667 613.5295833333333 586.596S673.92325 721.731 748.6645833333333 721.731S883.7995833333332 661.3373333333334 883.7995833333332 586.596S823.2390833333334 451.4610000000001 748.6645833333333 451.4610000000001z" />
    <glyph glyph-name="coverage"
      unicode="&#xE038;"
      horiz-adv-x="1000.9999999999999" d="M408.5748333333333 534.544L408.5748333333333 651.4941666666666L335.8354999999999 534.544zM500.4999999999998 949.2916666666666C293.6266666666667 949.2916666666666 124.9581666666666 780.79 124.9581666666666 573.7498333333333S500.4999999999998 31.7083333333334 500.4999999999998 31.7083333333334S876.0418333333332 366.8765 876.0418333333332 573.7498333333333S708.3743333333332 949.2916666666666 500.4999999999998 949.2916666666666M475.6418333333334 504.8476666666667H443.1093333333332V453.1293333333334C443.1093333333332 450.2931666666667 433.5998333333333 450.2931666666667 426.7596666666666 450.2931666666667S409.5758333333332 450.2931666666667 409.5758333333332 453.1293333333334V504.8476666666667H297.4638333333334C295.6286666666666 504.8476666666667 295.6286666666666 507.6838333333334 295.6286666666666 515.3581666666668S295.6286666666666 524.8676666666668 297.4638333333334 527.8706666666667L413.4129999999999 710.72C415.2481666666667 713.5561666666667 422.0883333333333 713.5561666666667 428.7616666666667 713.5561666666667C435.435 713.5561666666667 443.1093333333332 713.5561666666667 443.1093333333332 710.72V534.544H475.6418333333334C478.478 534.544 478.478 526.8696666666666 478.478 519.1953333333333C478.478 512.5219999999999 478.478 504.8476666666667 475.6418333333334 504.8476666666667M706.3723333333331 525.0345C706.3723333333331 474.3171666666667 671.8378333333332 446.456 612.4451666666664 446.456C552.0514999999998 446.456 518.5179999999998 474.1503333333334 518.5179999999998 520.1963333333333V639.9826666666667C518.5179999999998 696.5391666666667 557.7238333333331 716.5591666666667 611.4441666666664 716.5591666666667C637.3033333333331 716.5591666666667 665.1644999999997 709.8858333333333 683.3493333333331 701.2104999999999C687.1864999999998 699.3753333333334 675.6749999999997 670.5131666666666 671.8378333333332 672.5151666666667C652.6519999999998 681.1904999999999 630.6299999999999 686.8628333333334 613.4461666666665 686.8628333333334C586.5859999999998 686.8628333333334 554.0534999999998 675.3513333333333 554.0534999999998 638.9816666666667V526.8696666666667C554.0534999999998 490.5000000000001 581.7478333333331 476.1523333333334 613.4461666666665 476.1523333333334C645.9786666666665 476.1523333333334 671.8378333333332 489.4990000000001 671.8378333333332 526.8696666666667V565.2413333333334H621.9546666666665C619.1184999999999 565.2413333333334 619.1184999999999 572.9156666666668 619.1184999999999 580.59C619.1184999999999 587.2633333333333 619.1184999999999 595.9386666666667 621.9546666666665 595.9386666666667H706.2054999999999L706.3723333333331 525.0345L706.3723333333331 525.0345z" />
    <glyph glyph-name="coverage1"
      unicode="&#xE039;"
      horiz-adv-x="1000.9999999999999" d="M841.09025 816.6591666666667C841.09025 816.6591666666667 805.7215833333332 816.6591666666667 805.7215833333332 781.2905000000001V163.1730000000001H959.20825V782.1246666666667C959.20825 782.1246666666667 959.20825 817.4933333333333 923.8395833333332 817.4933333333333H840.9234166666666V816.6591666666667zM649.3987499999998 710.8868333333334C649.3987499999998 710.8868333333334 614.0300833333332 710.8868333333334 614.0300833333332 675.5181666666667V163.3398333333333H768.51775V675.5181666666667C768.51775 675.5181666666667 768.51775 710.8868333333332 733.1490833333332 710.8868333333332H649.3987499999998L649.3987499999998 710.8868333333334zM458.5414166666666 603.9466666666667C458.5414166666666 603.9466666666667 423.17275 603.9466666666667 423.17275 568.578V163.1730000000001H577.6604166666666V568.578C577.6604166666666 568.578 577.6604166666666 603.9466666666667 542.29175 603.9466666666667L458.5414166666666 603.9466666666667L458.5414166666666 603.9466666666667zM267.8509166666666 497.1733333333333C267.8509166666666 497.1733333333333 232.48225 497.1733333333333 232.48225 461.8046666666668V163.1730000000001H387.1367499999999V462.8056666666666C387.1367499999999 462.8056666666666 387.1367499999999 498.1743333333333 351.7680833333333 498.1743333333333L267.8509166666666 497.1733333333333L267.8509166666666 497.1733333333333zM77.1604166666666 391.2341666666668C77.1604166666666 391.2341666666668 41.7917499999999 391.2341666666668 41.7917499999999 355.8655000000001V163.1730000000001H196.2794166666666V356.0323333333334C196.2794166666666 356.0323333333334 196.2794166666666 391.401 160.9107499999999 391.401H77.1604166666666z" />
    </font>
</defs>
</svg>
